<?xml version="1.0" encoding="UTF-8" standalone="no"?>
<svg xmlns="http://www.w3.org/2000/svg"
    fill="none"
    version="1.1"
    width="193"
    height="118.998046875"
    viewBox="0 0 193 118.998046875">
    <g>
        <g>
            <g transform="matrix(0.993614673614502,0.11301375925540924,0.11264044046401978,-0.993614673614502,-8.191057156177521,144.97289730378606)">
                <path
                    d="M121.55182229614257,119.89853967285157C121.64182229614258,120.37123967285157,121.65082229614258,120.27433967285157,121.57782229614257,119.60783967285155C121.51282229614257,119.21963967285157,121.43682229614258,118.83343967285157,121.34982229614258,118.44963967285156C121.30582229614258,118.25863967285156,121.25582229614258,118.06103967285156,121.20382229614258,117.86193967285156C121.19082229614258,118.35463967285156,121.46482229614257,119.64533967285156,121.55182229614257,119.89853967285157ZM102.52812229614258,123.36643967285156C102.84612229614258,124.76493967285157,103.21102229614257,126.15643967285156,103.56832229614258,127.54263967285156C103.99492229614258,127.08273967285156,104.38822229614257,126.59063967285157,104.74612229614257,126.07803967285156C104.78122229614257,126.02763967285156,104.81342229614258,125.97543967285156,104.84802229614257,125.92503967285157C104.14802229614259,125.01013967285157,103.37122229614258,124.15403967285155,102.52812229614258,123.36643967285156L102.52812229614258,123.36643967285156ZM106.85132229614258,137.24513967285156C107.14372229614258,137.77193967285154,108.11102229614258,139.83223967285156,108.96882229614258,138.31063967285155C109.20342229614258,137.89453967285158,108.97452229614258,136.79483967285157,108.91772229614257,136.41193967285156C108.73092229614258,135.14773967285157,108.49442229614257,133.86513967285157,108.17262229614258,132.62903967285155C107.97122229614259,131.85703967285156,107.71482229614257,131.10123967285156,107.41342229614258,130.36443967285157C106.34042229614258,130.16923967285157,105.26132229614258,130.02673967285156,104.17642229614258,129.93453967285157C104.82622229614257,132.44713967285156,105.59162229614257,134.98003967285155,106.85132229614258,137.24513967285156L106.85132229614258,137.24513967285156ZM105.82192229614257,127.30603967285157C105.48782229614258,127.73023967285155,105.13382229614258,128.13883967285156,104.75372229614258,128.52693967285157C105.39682229614257,128.59773967285156,106.03762229614257,128.68563967285155,106.67642229614258,128.79103967285155C106.41202229614258,128.28513967285156,106.13002229614258,127.78823967285156,105.82192229614257,127.30603967285157L105.82192229614257,127.30603967285157ZM66.38052229614257,114.95373967285155C65.95392229614258,114.20593967285157,65.54922229614257,113.43403967285155,65.08662229614258,112.70813967285156C64.87952229614257,112.32383967285156,64.63022229614258,111.96793967285157,64.33932229614257,111.64023967285156C63.25682229614258,111.66963967285156,62.844022296142576,111.97743967285156,63.10092229614258,112.56413967285155C63.15632229614258,113.70623967285155,64.31462229614257,115.15513967285156,65.05872229614258,115.93423967285156C65.92792229614258,116.84583967285155,66.94542229614258,117.50663967285156,68.09852229614258,117.95843967285157C67.52032229614258,116.96033967285156,66.95162229614257,115.95603967285156,66.38052229614257,114.95373967285155ZM52.34532229614258,115.69333967285156C55.88992229614258,113.10903967285157,58.73402229614258,109.35283967285156,60.03732229614258,105.13903967285157C61.286222296142576,101.10113967285156,60.76392229614258,96.71973967285156,59.21082229614258,92.84083967285156C56.51272229614258,86.10223967285157,51.074722296142575,81.32555967285157,44.54772229614258,78.48710967285156C39.59742229614258,76.33416967285156,33.58982229614258,74.68430467285157,28.20985229614258,76.02157967285156C21.869492296142578,77.59733967285156,19.162509296142577,84.14883967285157,20.34171229614258,90.25943967285156C21.969112296142576,98.69353967285156,28.97342229614258,106.20133967285156,35.78652229614258,110.98133967285156C39.91972229614258,113.88103967285156,44.661022296142576,116.02923967285156,49.612622296142575,117.33133967285156C50.54532229614258,116.87813967285156,51.45812229614258,116.34033967285157,52.34532229614258,115.69333967285156L52.34532229614258,115.69333967285156ZM140.49282229614258,124.38303967285157C140.0898222961426,123.49943967285157,139.36282229614258,121.14653967285156,137.9958222961426,121.39783967285156C137.11682229614257,121.55933967285156,137.21382229614258,122.46333967285156,137.11782229614258,123.19443967285156C137.03282229614257,123.84333967285156,137.04982229614257,124.90563967285156,136.34882229614257,125.23863967285156C134.59582229614256,126.07283967285156,132.98282229614256,123.04953967285157,131.99382229614258,121.47713967285156C131.5028222961426,122.49513967285156,130.85682229614258,124.06143967285156,129.85582229614258,123.31183967285156C129.32582229614258,122.91513967285155,127.73482229614258,118.73563967285156,126.49982229614258,120.65533967285157C126.07482229614257,121.31513967285156,126.77282229614258,123.05333967285156,127.04382229614258,123.70563967285156C127.25282229614258,124.21153967285156,126.37982229614258,124.58493967285156,126.15282229614257,124.08133967285156C126.12382229614258,124.02243967285156,126.09382229614258,123.95833967285157,126.06282229614258,123.89133967285156C125.50682229614257,122.68613967285157,124.88782229614257,121.59733967285156,124.10382229614258,120.51423967285156C123.89782229614258,120.23063967285157,123.05582229614258,118.83773967285157,122.26982229614258,118.09613967285156C122.62482229614258,119.16263967285155,123.57882229614258,121.56833967285156,121.92582229614258,121.88993967285157C120.20682229614258,122.22483967285157,119.90482229614258,119.20973967285155,119.79182229614258,118.12083967285156C119.70482229614258,117.28523967285156,120.03382229614257,116.47673967285156,120.60882229614258,116.11613967285156C120.38482229614257,115.62113967285157,120.11182229614258,115.15793967285157,119.76682229614258,114.77503967285156C116.25662229614258,110.87823967285156,112.05562229614257,116.40453967285157,110.45322229614258,119.28473967285157C109.10532229614257,121.70703967285156,107.96272229614257,124.34123967285157,106.34132229614258,126.61483967285156C106.79442229614259,127.36403967285156,107.20772229614258,128.14353967285155,107.57832229614257,128.95163967285157C109.78022229614258,129.37393967285158,111.94142229614258,129.99863967285157,114.00872229614258,130.82003967285158C117.89452229614258,132.36343967285157,123.34382229614258,134.89933967285157,124.41082229614258,139.43843967285156C125.57182229614259,144.37663967285158,120.41082229614258,146.67213967285156,116.52152229614258,147.51293967285156C111.57272229614257,148.58323967285156,106.50252229614257,147.97423967285158,101.98732229614258,145.67453967285155C101.81912229614258,145.58893967285155,101.93612229614257,145.29923967285157,102.11722229614257,145.36523967285154C106.25132229614258,146.87683967285156,110.79212229614258,147.42073967285157,115.14472229614258,146.65403967285158C117.28782229614258,146.27643967285155,119.89982229614257,145.67543967285155,121.59382229614258,144.23033967285156C123.53082229614257,142.57853967285155,123.76782229614258,140.08163967285157,122.39682229614257,137.99763967285156C120.11482229614258,134.52783967285157,115.30782229614258,132.59433967285156,111.52342229614258,131.38723967285156C110.43332229614258,131.03953967285156,109.33662229614258,130.75353967285156,108.23382229614258,130.52403967285156C108.27222229614257,130.62523967285156,108.31392229614258,130.72403967285157,108.35082229614258,130.82573967285157C108.86552229614257,132.24043967285155,109.17932229614257,133.68883967285157,109.47082229614257,135.16203967285156C109.67122229614257,136.17583967285157,109.98882229614257,137.30453967285155,109.79022229614257,138.34203967285157C109.41062229614258,140.32393967285157,107.76702229614258,140.08693967285154,106.73762229614258,138.74153967285156C104.97452229614258,136.43663967285156,103.98922229614257,133.48743967285156,103.16322229614258,130.74113967285155C103.09592229614258,130.51643967285156,103.02762229614258,130.29083967285158,102.95982229614258,130.06513967285156C102.16932229614258,130.61713967285158,101.30112229614258,131.06233967285158,100.41532229614258,131.24943967285157C98.94842229614258,131.55873967285157,97.59492229614258,130.71033967285155,97.62662229614257,129.15213967285155C97.63522229614257,128.72743967285157,97.96082229614258,128.43953967285157,98.36832229614258,128.40823967285155C99.72052229614258,128.30603967285157,101.08352229614258,128.28703967285156,102.44562229614257,128.34693967285156C101.81102229614258,126.20633967285156,101.20442229614258,124.04003967285156,100.74092229614257,121.87333967285156C99.60862229614258,121.02963967285157,98.39542229614258,120.30283967285156,97.12332229614258,119.71473967285156C97.15692229614258,119.77173967285157,97.19442229614258,119.82583967285157,97.22712229614258,119.88423967285156C97.64132229614258,120.62773967285156,98.31762229614257,121.86143967285156,97.50012229614258,122.57353967285155C96.88402229614258,123.10993967285157,96.05742229614258,122.89233967285156,95.66502229614258,122.22633967285157C95.24462229614258,121.51183967285156,95.26602229614258,120.59923967285155,95.49112229614258,119.76743967285157C95.05272229614258,119.23493967285157,94.53232229614258,118.78503967285155,93.95552229614258,118.41353967285156C93.80202229614258,119.11893967285155,93.79772229614258,119.80303967285155,93.94562229614257,120.53223967285156C93.99012229614257,120.69563967285157,94.02992229614257,120.85573967285157,94.06072229614257,121.00823967285156C94.23802229614257,121.88333967285156,92.92992229614258,122.26243967285157,92.71482229614257,121.38023967285156C92.35032229614258,119.87193967285157,91.61762229614259,118.46433967285157,90.42952229614258,117.44013967285156C89.17642229614258,116.36033967285155,89.60722229614258,118.03723967285157,88.85882229614258,118.64343967285157C88.47782229614258,118.95223967285156,87.99152229614258,118.97123967285157,87.55362229614258,118.78403967285156C87.17452229614258,118.62253967285156,86.71852229614258,117.86533967285156,86.53892229614257,117.64723967285155C86.37112229614257,117.44343967285155,86.19292229614258,117.25013967285156,86.01522229614258,117.05623967285156C85.95312229614258,117.60263967285155,85.90812229614258,118.14933967285157,85.88492229614258,118.70563967285156C85.86742229614258,119.12323967285155,85.93752229614257,119.60873967285156,85.69442229614258,119.98973967285156C85.43182229614258,120.40063967285155,84.86262229614258,120.63013967285156,84.39062229614258,120.51653967285156C83.63752229614258,120.33563967285156,83.04032229614258,119.32613967285155,82.59962229614257,118.75883967285156C82.12232229614258,118.14513967285157,81.68162229614258,117.50663967285156,81.27112229614258,116.84873967285156C81.26922229614257,117.04633967285156,81.26732229614258,117.24393967285155,81.26542229614259,117.44153967285156C81.25792229614258,118.17933967285157,81.45362229614258,119.29803967285156,80.84172229614258,119.84863967285156C79.43412229614258,121.11513967285157,77.72652229614258,118.62493967285155,76.57772229614258,116.34133967285156C76.52842229614258,117.51663967285157,76.20432229614258,118.56843967285155,75.12462229614258,118.73323967285157C73.82232229614257,118.93223967285157,73.33892229614258,117.45813967285156,72.84982229614258,116.54413967285157C72.32422229614258,115.56173967285156,71.43132229614258,112.88103967285156,70.22652229614258,112.82683967285156C69.27202229614258,112.78463967285157,69.25972229614257,113.58363967285156,69.23082229614258,114.42263967285156C69.21472229614258,114.90853967285156,69.25542229614257,115.39933967285157,69.30282229614258,115.88243967285156C69.39242229614257,116.79553967285156,69.57442229614259,117.69663967285156,69.66062229614258,118.60973967285156C69.70712229614259,119.10043967285156,69.10142229614257,119.27863967285157,68.76872229614258,119.03153967285157C68.71612229614257,119.07053967285157,68.65452229614257,119.10143967285157,68.57342229614258,119.11373967285157C62.556322296142575,120.01873967285155,56.46822229614258,119.69803967285156,50.65962229614258,118.29473967285156C43.47382229614258,121.92223967285156,35.223022296142574,120.57353967285155,27.350372296142577,121.11843967285157C25.81363229614258,121.22493967285156,23.968082296142576,121.47573967285156,22.872902296142577,122.68943967285156C21.18048229614258,124.56503967285155,21.92513229614258,127.69033967285156,23.21499229614258,129.55213967285155C25.85301229614258,133.36063967285156,30.06032229614258,136.33203967285158,34.14532229614258,138.37763967285156C38.50272229614258,140.55963967285157,43.57052229614258,141.98383967285156,48.47332229614258,141.67173967285157C53.39142229614258,141.35913967285157,57.463022296142576,138.56203967285157,59.56822229614258,134.10793967285156C60.53972229614258,132.05283967285158,61.11802229614258,129.74123967285158,61.26912229614258,127.47613967285156C61.28102229614258,127.29893967285156,61.53552229614258,127.29703967285155,61.54502229614258,127.47613967285156C61.95732229614258,135.24323967285156,56.66112229614258,142.15103967285157,48.766722296142575,142.80233967285156C40.27422229614258,143.50353967285156,31.273422296142577,139.35253967285155,25.222822296142578,133.57963967285156C22.542952296142577,131.02243967285156,19.770052296142577,127.66943967285155,20.95910229614258,123.69133967285157C21.74764229614258,121.05293967285156,24.32073229614258,120.16933967285156,26.812032296142576,119.92233967285156C34.101722296142576,119.19923967285156,41.87952229614258,120.59733967285156,48.660522296142574,117.76413967285157C38.72972229614258,114.90423967285156,29.760822296142578,108.84113967285157,23.589032296142577,100.25403967285156C19.379721296142577,94.39763967285157,16.62099229614258,86.53403967285156,20.48124229614258,79.76404967285157C23.145612296142577,75.09188967285156,28.49607229614258,73.56221867285156,33.571322296142576,73.79831917285156C46.52492229614258,74.40116267285157,60.00322229614258,83.40105967285156,62.26342229614258,96.79333967285156C63.63502229614258,104.91913967285157,59.34682229614258,112.71803967285156,52.62732229614258,117.15743967285155C52.28182229614258,117.38553967285156,51.932622296142576,117.59543967285157,51.58142229614258,117.79683967285156C54.813622296142576,118.49333967285156,58.111322296142575,118.83583967285156,61.368622296142576,118.78883967285157C63.11182229614258,118.76413967285157,64.84732229614258,118.63013967285156,66.57202229614258,118.39783967285156C65.38522229614259,117.77833967285156,64.33742229614258,116.93083967285156,63.492322296142575,115.84393967285156C62.64162229614258,114.75083967285155,61.22932229614258,112.50383967285157,61.923622296142575,111.03443967285156C62.629322296142576,109.53993967285156,64.42642229614258,110.04443967285155,65.30232229614258,111.01353967285156C66.09762229614257,111.89383967285156,66.59192229614257,113.09003967285156,67.17672229614257,114.11143967285156C67.54682229614258,114.75743967285156,67.92082229614257,115.40113967285157,68.29242229614258,116.04583967285157C68.20702229614258,115.12423967285156,68.19002229614259,114.20313967285156,68.42412229614257,113.31713967285157C68.74832229614258,112.09003967285156,69.95262229614258,111.18603967285156,71.15452229614257,111.99503967285156C72.15492229614259,112.66823967285157,72.76772229614258,114.34183967285156,73.34172229614258,115.34133967285156C73.55872229614258,115.71903967285157,74.03552229614257,117.03683967285156,74.43982229614258,117.25343967285156C75.64452229614258,117.89993967285156,75.35072229614258,114.01403967285157,75.31662229614258,113.28673967285155C75.28722229614257,112.66913967285157,76.18772229614258,112.58603967285157,76.36162229614257,113.14513967285157C76.85922229614258,114.73993967285156,77.58012229614258,116.16793967285156,78.65832229614259,117.44863967285156C78.76212229614258,117.57123967285156,79.98152229614257,118.94893967285157,79.98722229614258,118.94653967285157C80.02992229614259,118.92793967285156,79.99152229614258,118.47053967285157,80.00052229614258,118.41013967285156C80.18342229614258,117.18833967285155,80.06402229614258,115.85053967285157,80.09432229614258,114.61303967285156C80.10852229614258,114.05103967285157,80.93512229614258,113.75223967285157,81.21092229614257,114.31003967285156C81.82842229614258,115.55893967285157,82.74312229614257,117.66153967285156,83.92472229614258,118.45153967285157C84.08822229614258,118.91373967285156,84.30712229614258,118.99833967285156,84.58202229614258,118.70563967285156C84.58112229614258,118.29093967285156,84.59622229614259,117.87713967285157,84.62612229614258,117.46383967285156C84.67632229614257,116.77983967285157,84.78202229614257,116.11423967285157,84.90952229614258,115.44063967285156C85.00432229614258,114.94033967285156,85.69012229614258,114.81023967285157,86.01952229614258,115.14703967285156C86.53702229614258,115.67623967285157,86.98202229614257,116.27483967285156,87.49392229614257,116.80453967285156C88.05362229614258,117.38453967285156,87.85792229614258,117.31893967285157,88.09242229614257,116.66383967285157C88.37782229614258,115.86813967285156,88.80432229614257,115.29333967285157,89.75692229614258,115.46293967285156C90.95832229614258,115.67723967285156,91.96782229614257,116.63873967285156,92.71812229614258,117.79353967285157C92.76742229614258,117.60063967285157,92.82282229614258,117.40783967285157,92.88922229614258,117.21493967285156C93.04032229614258,116.77173967285157,93.47542229614258,116.61253967285157,93.88822229614257,116.80733967285155C94.73372229614257,117.20543967285155,95.47922229614258,117.73273967285157,96.10862229614258,118.38263967285155C96.29772229614258,118.18883967285157,96.58252229614259,118.17643967285156,96.83612229614258,118.28473967285157C98.12432229614258,118.83293967285155,99.31862229614258,119.50183967285156,100.42622229614258,120.26903967285156C99.85702229614257,117.04633967285156,99.62762229614258,113.75793967285156,99.43852229614258,110.49763967285156C99.28682229614257,107.88253967285156,98.32902229614258,104.37613967285156,100.28072229614259,102.20183967285156C102.17022229614258,100.09683967285156,104.89252229614257,101.18663967285156,106.34802229614257,103.17423967285157C107.82522229614258,105.19133967285157,108.71252229614258,108.29343967285156,107.91342229614258,110.73473967285156C107.60682229614258,111.67103967285156,106.12432229614258,111.27013967285157,106.43382229614258,110.32573967285157C107.23572229614258,107.87493967285155,106.45232229614258,104.82653967285157,104.17932229614257,103.37233967285157C102.14652229614258,102.07263967285157,101.03332229614257,104.14003967285156,101.00062229614258,105.95093967285156C100.97362229614258,107.45493967285157,101.15652229614258,108.99223967285155,101.20252229614258,110.49763967285156C101.30442229614258,113.83063967285156,101.43802229614258,117.19313967285157,101.96222229614258,120.49093967285157C102.02192229614258,120.86663967285156,102.08872229614258,121.24153967285156,102.15982229614258,121.61633967285155C103.35892229614258,122.65953967285157,104.42862229614258,123.83673967285156,105.36082229614257,125.12933967285156C106.22332229614258,123.71943967285156,106.92482229614258,122.21113967285157,107.65562229614258,120.73133967285156C109.25802229614258,117.48623967285155,111.19732229614257,113.62923967285155,114.76372229614257,112.21313967285155C116.24142229614257,111.62643967285156,118.02062229614258,111.52903967285155,119.36982229614257,112.48583967285157C120.53482229614258,113.31233967285156,121.15482229614258,114.61643967285156,121.61282229614258,115.96413967285156C121.81682229614258,116.01163967285157,122.03082229614257,116.09903967285156,122.25482229614258,116.24533967285157C123.26182229614258,116.90093967285156,123.94282229614258,118.23013967285156,124.55482229614258,119.22873967285156C124.85082229614258,119.71043967285156,125.13482229614257,120.20213967285156,125.41382229614258,120.69663967285156C125.52782229614257,119.96603967285157,125.94982229614257,119.41923967285156,126.92582229614258,119.39643967285156C128.87482229614258,119.34983967285157,128.7218222961426,121.11323967285156,129.84282229614257,122.12413967285156C130.3398222961426,122.57213967285156,130.2578222961426,122.75123967285157,130.5918222961426,122.02913967285156C130.71782229614257,121.75793967285156,130.7888222961426,121.45903967285156,130.89382229614256,121.17973967285155C131.05982229614258,120.73893967285156,131.2148222961426,120.31183967285156,131.52882229614258,119.95083967285157C131.73182229614258,119.71703967285157,132.17882229614258,119.71613967285157,132.38182229614256,119.95083967285157C133.4018222961426,121.13223967285157,133.86082229614257,122.77733967285155,134.97282229614257,123.86193967285156C136.05282229614258,124.91413967285156,135.96382229614258,123.84573967285156,135.93682229614257,123.03243967285155C135.91782229614256,122.46663967285156,135.8758222961426,121.87093967285156,136.04582229614257,121.31893967285157C136.3948222961426,120.17883967285155,137.56582229614258,119.74843967285156,138.69082229614258,119.95983967285156C140.03382229614257,120.21203967285156,140.88082229614258,121.24153967285156,141.41782229614256,122.41963967285156C141.65382229614258,122.49703967285157,141.84782229614257,122.70563967285156,141.8708222961426,123.05143967285156C141.89182229614258,123.36503967285157,141.9118222961426,123.67853967285157,141.93282229614258,123.99203967285156C141.98182229614258,124.73503967285157,140.8108222961426,125.08133967285156,140.49282229614258,124.38303967285157Z"
                    fill="#1C1E2A"
                    fill-opacity="1"
                    style="mix-blend-mode:passthrough" />
            </g>
            <g transform="matrix(0.993614673614502,0.11301375925540924,0.11264043301343918,-0.993614673614502,-2.6894653691530266,47.600599650281936)">
                <path
                    d="M143.6400235168457,31.971177727416993C143.6713035168457,31.977357127416994,143.7021035168457,31.98400042741699,143.7333835168457,31.99065312741699C144.2139535168457,32.09231672741699,144.4623035168457,32.64242372741699,144.3547135168457,33.08802872741699C144.3466635168457,33.12175872741699,144.3385935168457,33.15547872741699,144.33007351684572,33.18921872741699C144.1272235168457,34.03148872741699,142.9433375168457,34.14407872741699,142.5243765168457,33.42579872741699C142.0712955168457,32.649558727416995,142.8163185168457,31.796363727416992,143.6400235168457,31.971177727416993Z"
                    fill="#1C1E2A"
                    fill-opacity="1"
                    style="mix-blend-mode:passthrough" />
            </g>
            <g transform="matrix(0.993614673614502,0.11301375925540924,0.11264044046401978,-0.993614673614502,-4.157587659964065,73.58478062279204)">
                <path
                    d="M160.69842842407226,56.50812193603515C160.91742842407226,57.106221936035155,161.12212842407226,58.08342193603516,161.77332842407228,58.32142193603516C162.58992842407227,58.619721936035155,161.88042842407228,57.36752193603516,161.70272842407226,56.93572193603516C161.32742842407225,56.022121936035155,160.75772842407227,55.181821936035156,160.12552842407226,54.42361193603516C160.22362842407227,55.186521936035156,160.51312842407228,56.00082193603516,160.69842842407226,56.50812193603515ZM165.95722842407227,56.01792193603516C165.13832842407226,55.23022193603516,162.63022842407227,52.13480193603516,161.03922842407226,52.48777193603516C161.34352842407228,52.85784193603516,161.61462842407227,53.223631936035154,161.83972842407226,53.548091936035156C162.77482842407227,54.89440193603515,163.97812842407228,57.467321936035155,163.21362842407225,59.11102193603516C162.47712842407228,60.69382193603516,161.06912842407226,59.862021936035156,160.36432842407226,58.78842193603516C159.25912842407226,57.105821936035156,158.20412842407228,54.763281936035156,158.62312842407226,52.69110193603515C158.30652842407227,52.391811936035154,157.98042842407227,52.15286193603516,157.67242842407228,52.068301936035155C155.84442842407228,51.56569193603516,156.42022842407226,53.606531936035154,156.59462842407225,54.21887193603516C156.75532842407227,54.78276193603516,157.00552842407225,55.32532193603515,157.28002842407227,55.841221936035154C157.79992842407228,56.81692193603516,158.48002842407226,57.64832193603516,159.25532842407227,58.432621936035154C159.83122842407226,59.01552193603516,159.25482842407226,60.13282193603516,158.42742842407227,59.857721936035155C156.47762842407226,59.209821936035155,154.52162842407228,58.58172193603516,152.56527842407226,57.955121936035155C152.62026842407226,58.48482193603516,152.67759842407227,59.01402193603516,152.73163842407226,59.54422193603516C153.23211842407227,64.47482193603516,153.55865842407226,69.41062193603516,153.82879842407226,74.35922193603515C153.84964842407226,74.73982193603516,153.28282842407228,74.72692193603515,153.24585842407225,74.35922193603515C152.75627842407226,69.52562193603515,152.20888842407226,64.69852193603515,151.71172842407228,59.865821936035154C151.63447842407226,59.11192193603516,151.55296842407228,58.35802193603516,151.47239842407225,57.60462193603516C150.72262842407227,57.36422193603516,149.97286842407226,57.123321936035154,149.22308842407227,56.88202193603516C149.58516842407226,62.421121936035156,149.67189842407225,67.97172193603515,149.43161842407227,73.53982193603515C149.41550842407227,73.91412193603516,148.84961842407228,73.91842193603516,148.84867842407226,73.53982193603515C148.83351842407225,67.87762193603515,148.63397842407227,62.20692193603516,148.20649842407227,56.55562193603515C147.00411842407226,56.16752193603516,145.80221842407227,55.77612193603515,144.60269342407227,55.37662193603516C144.17330042407227,55.233621936035156,144.34582375407226,54.587041936035156,144.79037942407226,54.694401936035156C145.90269842407227,54.96281193603515,147.01313842407225,55.238321936035156,148.12262842407227,55.51582193603515C147.86385842407228,52.310111936035156,147.53446842407226,49.11062193603516,147.11645842407228,45.92395993603515C147.03968842407227,45.338691936035154,148.01030842407226,45.217552936035155,148.14064842407225,45.784769936035154C148.31599842407226,46.552451936035155,148.45012842407226,47.325371936035154,148.57286842407225,48.10303193603516C148.59039842407228,48.21372193603516,148.53543842407225,48.317761936035154,148.45580842407227,48.38522193603516C148.73779842407225,50.84600193603516,148.96954842407226,53.30868193603516,149.14727842407225,55.77372193603516C149.87761842407227,55.95762193603515,150.60747842407227,56.14192193603516,151.33733842407227,56.32722193603516C151.20889842407226,55.14852193603515,151.07715842407225,53.970431936035155,150.94160842407226,52.79277193603516C150.66483842407226,50.381871936035154,150.10889842407227,47.83653193603516,150.26435842407227,45.408525936035154C150.28756842407228,45.046060336035154,150.78188842407226,44.96862693603516,150.89754842407226,45.322542936035155C151.59753842407227,47.470741936035154,151.67953842407226,49.91441193603516,151.93451842407228,52.15049193603516C152.10370842407227,53.63314193603516,152.26532842407227,55.11722193603516,152.42361842407226,56.601721936035155C153.69376842407226,56.923821936035154,154.96442842407225,57.24352193603516,156.23552842407227,57.560421936035155C155.41702842407227,56.38842193603516,154.79712842407227,55.06305193603516,154.57242842407226,53.696321936035154C154.31178842407226,52.105841936035155,154.99422842407228,50.254081936035156,156.76822842407228,49.988051936035156C157.72272842407227,49.84553193603516,158.65592842407227,50.27925193603516,159.48762842407226,50.93198193603516C161.66352842407227,48.823691936035154,166.47302842407225,53.064021936035154,167.23982842407227,55.269721936035154C167.50282842407228,56.02502193603516,166.48102842407226,56.521021936035154,165.95732842407227,56.01792193603516"
                    fill="#1C1E2A"
                    fill-opacity="1"
                    style="mix-blend-mode:passthrough" />
            </g>
        </g>
        <g>
            <path
                d="M2.7483,85.171265625L4.38636,85.171265625L3.20332,90.768240625L9.84657,90.768240625L11.0296,85.171265625L12.6677,85.171265625L9.91937,98.115440625L8.28131,98.115440625L9.53716,92.226740625L2.89391,92.226740625L1.63806,98.115440625L0,98.115440625L2.7483,85.171265625ZM16.235,98.297740625Q15.1794,98.297740625,14.4149,97.759940625Q13.6505,97.222140625,13.2501,96.319640625Q12.8497,95.417240625,12.8497,94.341560625Q12.8497,93.193000625,13.2774,92.135580625Q13.7051,91.078170625,14.4422,90.248660625Q15.1794,89.419130625,16.1258,88.926890625Q17.0722,88.434650625,18.1097,88.434650625Q19.2017,88.434650625,19.9297,89.036280625Q20.6578,89.637910625,20.949,90.494780625L21.3676,88.598730625L22.9693,88.598730625L21.3676,96.146440625Q21.3494,96.219340625,21.3403,96.274040625Q21.3312,96.328740625,21.3312,96.383440625Q21.3312,96.711640625,21.7316,96.729840625L21.4404,98.115440625Q21.2402,98.133640625,21.0855,98.161040625Q20.9308,98.188340625,20.8034,98.188340625Q20.2938,98.188340625,20.0298,97.951340625Q19.7659,97.714340625,19.7659,97.367940625Q19.7659,97.258540625,19.7841,97.112740625Q19.8023,96.966840625,19.8387,96.766340625Q19.8751,96.565740625,19.9297,96.328740625Q19.2199,97.240340625,18.2098,97.769040625Q17.1996,98.297740625,16.235,98.297740625ZM16.9266,96.912140625Q17.327,96.912140625,17.7912,96.748040625Q18.2553,96.584040625,18.7012,96.292340625Q19.1471,96.000640625,19.5111,95.60864062499999Q19.8751,95.216640625,20.0571,94.779110625L20.6214,92.044430625Q20.5486,91.424570625,20.2028,90.923210625Q19.8569,90.421850625,19.3564,90.121040625Q18.8559,89.820220625,18.2917,89.820220625Q17.5273,89.820220625,16.8538,90.193960625Q16.1804,90.567700625,15.6617,91.187560625Q15.143,91.807420625,14.8427,92.564020625Q14.5423,93.320610625,14.5423,94.086320625Q14.5423,94.870240625,14.8336,95.508340625Q15.1248,96.146440625,15.6617,96.529340625Q16.1986,96.912140625,16.9266,96.912140625ZM25.5902,88.598730625L27.0462,88.598730625L26.6094,90.640630625Q27.1008,89.966070625,27.7833,89.473830625Q28.4659,88.981590625,29.2485,88.708120625Q30.0311,88.434650625,30.8137,88.434650625Q31.5782,88.434650625,32.0332,88.717230625Q32.4882,88.999820625,32.6884,89.501180625Q32.8886,90.002530625,32.8886,90.677090625Q32.8886,91.078170625,32.8249,91.515720625Q32.7612,91.953270625,32.6702,92.427280625L31.469,98.115440625L29.8673,98.115440625L30.9958,92.791910625Q31.0868,92.390820625,31.1232,92.053540625Q31.1596,91.71627062499999,31.1596,91.424570625Q31.1596,90.622390625,30.8319,90.248660625Q30.5043,89.874920625,29.8673,89.874920625Q29.2667,89.874920625,28.5933,90.203080625Q27.9198,90.531240625,27.3374,91.087290625Q26.755,91.64334062500001,26.391,92.372590625L25.1715,98.115440625L23.5699,98.115440625L25.5902,88.598730625ZM37.5844,98.297740625Q36.5288,98.297740625,35.7643,97.759940625Q34.9999,97.222140625,34.5995,96.319640625Q34.1991,95.417240625,34.1991,94.341560625Q34.1991,93.193000625,34.6268,92.135580625Q35.0545,91.078170625,35.7916,90.248660625Q36.5288,89.419130625,37.4752,88.926890625Q38.4216,88.434650625,39.4591,88.434650625Q40.5511,88.434650625,41.2791,89.036280625Q42.0072,89.637910625,42.2984,90.494780625L43.5178,84.806640625L45.1195,84.806640625L42.717,96.146440625Q42.6988,96.219340625,42.6897,96.274040625Q42.6806,96.328740625,42.6806,96.383440625Q42.6806,96.711640625,43.081,96.729840625L42.7898,98.115440625Q42.5896,98.133640625,42.4349,98.161040625Q42.2802,98.188340625,42.1528,98.188340625Q41.6432,98.188340625,41.3792,97.951340625Q41.1153,97.714340625,41.1153,97.367940625Q41.1153,97.258540625,41.1335,97.121840625Q41.1517,96.985040625,41.1881,96.784540625Q41.2245,96.584040625,41.2791,96.328740625Q40.5693,97.240340625,39.5592,97.769040625Q38.549,98.297740625,37.5844,98.297740625ZM38.276,96.912140625Q38.6764,96.912140625,39.1406,96.748040625Q39.6047,96.584040625,40.0506,96.292340625Q40.4965,96.000640625,40.8605,95.60864062499999Q41.2245,95.216640625,41.4065,94.779110625L41.9708,92.044430625Q41.898,91.424570625,41.5522,90.923210625Q41.2063,90.421850625,40.7058,90.121040625Q40.2053,89.820220625,39.6411,89.820220625Q38.8766,89.820220625,38.2032,90.193960625Q37.5298,90.567700625,37.0111,91.187560625Q36.4924,91.807420625,36.192,92.564020625Q35.8917,93.320610625,35.8917,94.086320625Q35.8917,94.870240625,36.1829,95.508340625Q36.4742,96.146440625,37.0111,96.529340625Q37.548,96.912140625,38.276,96.912140625ZM53.1096,98.297740625Q52.0539,98.297740625,51.2895,97.759940625Q50.5251,97.222140625,50.1247,96.319640625Q49.7243,95.417240625,49.7243,94.341560625Q49.7243,93.193000625,50.152,92.135580625Q50.5797,91.078170625,51.3168,90.248660625Q52.0539,89.419130625,53.0004,88.926890625Q53.9468,88.434650625,54.9843,88.434650625Q56.0763,88.434650625,56.8043,89.036280625Q57.5324,89.637910625,57.8236,90.494780625L59.043,84.806640625L60.6447,84.806640625L58.2422,96.146440625Q58.224,96.219340625,58.2149,96.274040625Q58.2058,96.328740625,58.2058,96.383440625Q58.2058,96.711640625,58.6062,96.729840625L58.315,98.115440625Q58.1148,98.133640625,57.9601,98.161040625Q57.8054,98.188340625,57.678,98.188340625Q57.1683,98.188340625,56.9044,97.951340625Q56.6405,97.714340625,56.6405,97.367940625Q56.6405,97.258540625,56.6587,97.121840625Q56.6769,96.985040625,56.7133,96.784540625Q56.7497,96.584040625,56.8043,96.328740625Q56.0945,97.240340625,55.0844,97.769040625Q54.0742,98.297740625,53.1096,98.297740625ZM53.8012,96.912140625Q54.2016,96.912140625,54.6657,96.748040625Q55.1299,96.584040625,55.5758,96.292340625Q56.0217,96.000640625,56.3857,95.60864062499999Q56.7497,95.216640625,56.9317,94.779110625L57.4959,92.044430625Q57.4231,91.424570625,57.0773,90.923210625Q56.7315,90.421850625,56.231,90.121040625Q55.7305,89.820220625,55.1663,89.820220625Q54.4018,89.820220625,53.7284,90.193960625Q53.055,90.567700625,52.5363,91.187560625Q52.0175,91.807420625,51.7172,92.564020625Q51.4169,93.320610625,51.4169,94.086320625Q51.4169,94.870240625,51.7081,95.508340625Q51.9993,96.146440625,52.5363,96.529340625Q53.0732,96.912140625,53.8012,96.912140625ZM62.4647,88.598730625L63.9572,88.598730625L63.484,90.804710625Q64.1756,89.820220625,65.0583,89.200360625Q65.9411,88.580500625,66.8147,88.580500625Q66.9785,88.580500625,67.0968,88.589620625Q67.2151,88.598730625,67.2879,88.616960625L66.9967,90.002530625Q65.8683,90.020770625,64.8672,90.613280625Q63.8662,91.205790625,63.2838,92.244970625L62.0461,98.115440625L60.4445,98.115440625L62.4647,88.598730625ZM70.4366,98.297740625Q69.381,98.297740625,68.6166,97.759940625Q67.8521,97.222140625,67.4517,96.319640625Q67.0513,95.417240625,67.0513,94.341560625Q67.0513,93.193000625,67.479,92.135580625Q67.9067,91.078170625,68.6439,90.248660625Q69.381,89.419130625,70.3274,88.926890625Q71.2739,88.434650625,72.3113,88.434650625Q73.4033,88.434650625,74.1314,89.036280625Q74.8594,89.637910625,75.1506,90.494780625L75.5692,88.598730625L77.1709,88.598730625L75.5692,96.146440625Q75.551,96.219340625,75.5419,96.274040625Q75.5328,96.328740625,75.5328,96.383440625Q75.5328,96.711640625,75.9332,96.729840625L75.642,98.115440625Q75.4418,98.133640625,75.2871,98.161040625Q75.1324,98.188340625,75.005,98.188340625Q74.4954,98.188340625,74.2315,97.951340625Q73.9676,97.714340625,73.9676,97.367940625Q73.9676,97.258540625,73.9858,97.112740625Q74.004,96.966840625,74.0404,96.766340625Q74.0768,96.565740625,74.1314,96.328740625Q73.4215,97.240340625,72.4114,97.769040625Q71.4013,98.297740625,70.4366,98.297740625ZM71.1283,96.912140625Q71.5287,96.912140625,71.9928,96.748040625Q72.4569,96.584040625,72.9028,96.292340625Q73.3487,96.000640625,73.7128,95.60864062499999Q74.0768,95.216640625,74.2588,94.779110625L74.823,92.044430625Q74.7502,91.424570625,74.4044,90.923210625Q74.0586,90.421850625,73.558,90.121040625Q73.0575,89.820220625,72.4933,89.820220625Q71.7289,89.820220625,71.0555,90.193960625Q70.382,90.567700625,69.8633,91.187560625Q69.3446,91.807420625,69.0443,92.564020625Q68.744,93.320610625,68.744,94.086320625Q68.744,94.870240625,69.0352,95.508340625Q69.3264,96.146440625,69.8633,96.529340625Q70.4002,96.912140625,71.1283,96.912140625ZM78.5723,88.598730625L80.2286,88.598730625L81.7393,96.711640625Q82.3217,95.964140625,82.8495,95.20754062500001Q83.3773,94.450950625,83.8323,93.703470625L82.5583,88.598730625L84.2145,88.598730625L84.9426,91.679800625Q85.3248,90.914090625,85.6251,90.139270625Q85.9254,89.364440625,86.1256,88.598730625L87.6545,88.598730625Q87.3087,89.856680625,86.7353,91.123750625Q86.162,92.390820625,85.4158,93.648780625L86.162,96.711640625Q86.7444,95.909440625,87.2723,95.098140625Q87.8001,94.286870625,88.2551,93.466460625Q88.7101,92.646060625,89.1014,91.834770625Q89.4927,91.023480625,89.7931,90.212190625Q90.0934,89.400900625,90.2936,88.598730625L91.8224,88.598730625Q91.1672,90.968790625,89.8386,93.347960625Q88.5099,95.727140625,86.6716,98.115440625L84.9426,98.115440625L84.2691,95.435440625Q83.8141,96.10994062500001,83.3045,96.775440625Q82.7949,97.44084062499999,82.2489,98.115440625L80.5198,98.115440625L78.5723,88.598730625ZM93.7699,88.598730625L95.226,88.598730625L94.7891,90.640630625Q95.2806,89.966070625,95.9631,89.473830625Q96.6456,88.981590625,97.4282,88.708120625Q98.2109,88.434650625,98.9935,88.434650625Q99.7579,88.434650625,100.213,88.717230625Q100.668,88.999820625,100.868,89.501180625Q101.068,90.002530625,101.068,90.677090625Q101.068,91.078170625,101.005,91.515720625Q100.941,91.953270625,100.85,92.427280625L99.6487,98.115440625L98.0471,98.115440625L99.1755,92.791910625Q99.2665,92.390820625,99.3029,92.053540625Q99.3393,91.71627062499999,99.3393,91.424570625Q99.3393,90.622390625,99.0117,90.248660625Q98.6841,89.874920625,98.0471,89.874920625Q97.4464,89.874920625,96.773,90.203080625Q96.0996,90.531240625,95.5172,91.087290625Q94.9347,91.64334062500001,94.5707,92.372590625L93.3513,98.115440625L91.7496,98.115440625L93.7699,88.598730625ZM110.26,98.297740625Q109.204,98.297740625,108.44,97.759940625Q107.675,97.222140625,107.275,96.319640625Q106.874,95.417240625,106.874,94.341560625Q106.874,93.193000625,107.302,92.135580625Q107.73,91.078170625,108.467,90.248660625Q109.204,89.419130625,110.151,88.926890625Q111.097,88.434650625,112.134,88.434650625Q113.226,88.434650625,113.954,89.036280625Q114.682,89.637910625,114.974,90.494780625L115.392,88.598730625L116.994,88.598730625L115.392,96.146440625Q115.374,96.219340625,115.365,96.274040625Q115.356,96.328740625,115.356,96.383440625Q115.356,96.711640625,115.756,96.729840625L115.465,98.115440625Q115.265,98.133640625,115.11,98.161040625Q114.955,98.188340625,114.828,98.188340625Q114.318,98.188340625,114.055,97.951340625Q113.791,97.714340625,113.791,97.367940625Q113.791,97.258540625,113.809,97.112740625Q113.827,96.966840625,113.863,96.766340625Q113.9,96.565740625,113.954,96.328740625Q113.245,97.240340625,112.234,97.769040625Q111.224,98.297740625,110.26,98.297740625ZM110.951,96.912140625Q111.352,96.912140625,111.816,96.748040625Q112.28,96.584040625,112.726,96.292340625Q113.172,96.000640625,113.536,95.60864062499999Q113.9,95.216640625,114.082,94.779110625L114.646,92.044430625Q114.573,91.424570625,114.227,90.923210625Q113.882,90.421850625,113.381,90.121040625Q112.881,89.820220625,112.316,89.820220625Q111.552,89.820220625,110.879,90.193960625Q110.205,90.567700625,109.686,91.187560625Q109.168,91.807420625,108.867,92.564020625Q108.567,93.320610625,108.567,94.086320625Q108.567,94.870240625,108.858,95.508340625Q109.149,96.146440625,109.686,96.529340625Q110.223,96.912140625,110.951,96.912140625ZM120.325,98.297740625Q118.104,98.297740625,118.104,95.891240625Q118.104,95.544840625,118.159,95.152840625Q118.213,94.760880625,118.304,94.305100625L119.524,88.598730625L121.107,88.598730625L119.961,93.995170625Q119.797,94.724420625,119.797,95.253140625Q119.797,96.912140625,121.217,96.912140625Q121.835,96.912140625,122.454,96.629540625Q123.073,96.347040625,123.646,95.818240625Q124.22,95.289540625,124.638,94.560340625L125.894,88.598730625L127.496,88.598730625L125.894,96.146440625Q125.876,96.219340625,125.867,96.274040625Q125.858,96.328740625,125.858,96.383440625Q125.858,96.711640625,126.258,96.729840625L125.967,98.115440625Q125.767,98.133640625,125.612,98.161040625Q125.457,98.188340625,125.33,98.188340625Q124.838,98.188340625,124.584,97.96954062500001Q124.329,97.750840625,124.329,97.386140625Q124.329,97.276740625,124.347,97.121840625Q124.365,96.966840625,124.411,96.711640625Q124.456,96.456340625,124.529,96.07354062499999Q123.71,97.130940625,122.6,97.714340625Q121.49,98.297740625,120.325,98.297740625ZM128.806,96.784540625Q128.806,96.656940625,128.824,96.520140625Q128.843,96.383440625,128.861,96.255840625L130.226,89.856680625L128.988,89.856680625L129.261,88.598730625L130.481,88.598730625L131.154,85.426502625L132.756,85.426502625L132.082,88.598730625L134.103,88.598730625L133.83,89.856680625L131.827,89.856680625L130.572,95.763640625Q130.553,95.836540625,130.544,95.900340625Q130.535,95.964140625,130.535,96.037040625Q130.535,96.419940625,130.772,96.593140625Q131.008,96.766340625,131.354,96.766340625Q131.664,96.766340625,131.946,96.684240625Q132.228,96.60224062500001,132.446,96.51104062499999Q132.665,96.419940625,132.774,96.365240625L132.865,97.641440625Q132.647,97.787240625,132.283,97.933140625Q131.919,98.078940625,131.464,98.161040625Q131.008,98.243040625,130.517,98.243040625Q129.789,98.243040625,129.298,97.887540625Q128.806,97.53204062500001,128.806,96.784540625ZM138.125,98.297740625Q136.851,98.297740625,136.014,97.750840625Q135.176,97.203840625,134.767,96.292340625Q134.357,95.380740625,134.357,94.286870625Q134.357,93.083610625,134.794,92.026200625Q135.231,90.968790625,136.005,90.157500625Q136.778,89.346210625,137.797,88.890430625Q138.817,88.434650625,139.963,88.434650625Q141.237,88.434650625,142.084,88.981590625Q142.93,89.528520625,143.349,90.44008062500001Q143.767,91.351640625,143.767,92.463750625Q143.767,93.648780625,143.33,94.706180625Q142.894,95.763640625,142.111,96.57484062500001Q141.328,97.386140625,140.309,97.841940625Q139.29,98.297740625,138.125,98.297740625ZM138.398,96.912140625Q139.108,96.912140625,139.772,96.60224062500001Q140.436,96.292340625,140.955,95.718040625Q141.474,95.14374062499999,141.783,94.378020625Q142.093,93.61231062499999,142.093,92.700750625Q142.093,91.862120625,141.82,91.214910625Q141.547,90.567700625,141.019,90.193960625Q140.491,89.820220625,139.708,89.820220625Q138.999,89.820220625,138.343,90.139270625Q137.688,90.458310625,137.16,91.032600625Q136.632,91.606880625,136.323,92.381710625Q136.014,93.156530625,136.014,94.068090625Q136.014,94.888540625,136.287,95.535740625Q136.56,96.182940625,137.097,96.547540625Q137.634,96.912140625,138.398,96.912140625ZM147.462,102.180940625Q145.933,102.180940625,145.078,101.615840625Q144.222,101.050640625,143.785,100.084440625L144.877,99.263940625Q145.241,100.10264062499999,145.997,100.521940625Q146.752,100.941240625,147.717,100.941240625Q148.536,100.941240625,149.291,100.622240625Q150.046,100.303140625,150.611,99.646840625Q151.175,98.990540625,151.375,98.006040625L151.721,96.328740625Q151.047,97.203840625,150.074,97.714340625Q149.1,98.224840625,148.135,98.224840625Q147.116,98.224840625,146.379,97.686940625Q145.642,97.149140625,145.26,96.264940625Q144.877,95.380740625,144.877,94.341560625Q144.877,93.193000625,145.305,92.135580625Q145.733,91.078170625,146.479,90.248660625Q147.225,89.419130625,148.199,88.926890625Q149.173,88.434650625,150.247,88.434650625Q151.375,88.434650625,152.076,89.018050625Q152.776,89.601450625,153.159,90.494780625L153.559,88.598730625L154.979,88.598730625L152.977,98.006040625Q152.704,99.355140625,151.885,100.284940625Q151.066,101.214740625,149.91,101.697840625Q148.754,102.180940625,147.462,102.180940625ZM148.918,96.912140625Q149.391,96.912140625,149.873,96.729840625Q150.356,96.547540625,150.784,96.246740625Q151.211,95.945940625,151.548,95.563040625Q151.885,95.180240625,152.067,94.779110625L152.649,92.044430625Q152.558,91.388110625,152.212,90.886750625Q151.866,90.385390625,151.366,90.102810625Q150.865,89.820220625,150.283,89.820220625Q149.5,89.820220625,148.827,90.203080625Q148.154,90.585930625,147.635,91.214910625Q147.116,91.843890625,146.825,92.591360625Q146.534,93.338840625,146.534,94.086320625Q146.534,94.852040625,146.834,95.499240625Q147.134,96.146440625,147.671,96.529340625Q148.208,96.912140625,148.918,96.912140625ZM157.49,88.598730625L158.983,88.598730625L158.51,90.804710625Q159.201,89.820220625,160.084,89.200360625Q160.967,88.580500625,161.84,88.580500625Q162.004,88.580500625,162.123,88.589620625Q162.241,88.598730625,162.314,88.616960625L162.022,90.002530625Q160.894,90.020770625,159.893,90.613280625Q158.892,91.205790625,158.31,92.244970625L157.072,98.115440625L155.47,98.115440625L157.49,88.598730625ZM165.462,98.297740625Q164.407,98.297740625,163.642,97.759940625Q162.878,97.222140625,162.477,96.319640625Q162.077,95.417240625,162.077,94.341560625Q162.077,93.193000625,162.505,92.135580625Q162.932,91.078170625,163.67,90.248660625Q164.407,89.419130625,165.353,88.926890625Q166.3,88.434650625,167.337,88.434650625Q168.429,88.434650625,169.157,89.036280625Q169.885,89.637910625,170.176,90.494780625L170.595,88.598730625L172.197,88.598730625L170.595,96.146440625Q170.577,96.219340625,170.568,96.274040625Q170.559,96.328740625,170.559,96.383440625Q170.559,96.711640625,170.959,96.729840625L170.668,98.115440625Q170.468,98.133640625,170.313,98.161040625Q170.158,98.188340625,170.031,98.188340625Q169.521,98.188340625,169.257,97.951340625Q168.993,97.714340625,168.993,97.367940625Q168.993,97.258540625,169.012,97.112740625Q169.03,96.966840625,169.066,96.766340625Q169.102,96.565740625,169.157,96.328740625Q168.447,97.240340625,167.437,97.769040625Q166.427,98.297740625,165.462,98.297740625ZM166.154,96.912140625Q166.554,96.912140625,167.019,96.748040625Q167.483,96.584040625,167.929,96.292340625Q168.374,96.000640625,168.738,95.60864062499999Q169.102,95.216640625,169.285,94.779110625L169.849,92.044430625Q169.776,91.424570625,169.43,90.923210625Q169.084,90.421850625,168.584,90.121040625Q168.083,89.820220625,167.519,89.820220625Q166.755,89.820220625,166.081,90.193960625Q165.408,90.567700625,164.889,91.187560625Q164.37,91.807420625,164.07,92.564020625Q163.77,93.320610625,163.77,94.086320625Q163.77,94.870240625,164.061,95.508340625Q164.352,96.146440625,164.889,96.529340625Q165.426,96.912140625,166.154,96.912140625ZM174.818,88.598730625L176.237,88.598730625L175.855,90.385390625Q176.583,89.510290625,177.557,88.972470625Q178.53,88.434650625,179.55,88.434650625Q180.605,88.434650625,181.352,88.981590625Q182.098,89.528520625,182.498,90.430970625Q182.899,91.333410625,182.899,92.409050625Q182.899,93.539390625,182.48,94.596800625Q182.061,95.654240625,181.333,96.492840625Q180.605,97.331440625,179.668,97.814640625Q178.731,98.297740625,177.675,98.297740625Q176.565,98.297740625,175.837,97.714340625Q175.109,97.130940625,174.799,96.237640625L173.58,101.99864062500001L171.978,101.99864062500001L174.818,88.598730625ZM177.475,96.912140625Q178.239,96.912140625,178.913,96.53844062499999Q179.586,96.164640625,180.105,95.553940625Q180.624,94.943240625,180.924,94.186600625Q181.224,93.430000625,181.224,92.664290625Q181.224,91.880350625,180.933,91.233140625Q180.642,90.585930625,180.105,90.203080625Q179.568,89.820220625,178.84,89.820220625Q178.439,89.820220625,177.975,89.984300625Q177.511,90.148380625,177.056,90.449200625Q176.601,90.750010625,176.246,91.132870625Q175.891,91.515720625,175.709,91.953270625L175.127,94.669720625Q175.254,95.289540625,175.573,95.800040625Q175.891,96.310540625,176.383,96.611340625Q176.874,96.912140625,177.475,96.912140625ZM186.539,84.806640625L188.14,84.806640625L186.903,90.640630625Q187.649,89.619680625,188.696,89.027160625Q189.742,88.434650625,190.816,88.434650625Q191.617,88.434650625,192.099,88.735460625Q192.581,89.036280625,192.791,89.56499062500001Q193,90.093690625,193,90.804710625Q193,91.169330625,192.954,91.579530625Q192.909,91.989740625,192.818,92.427280625L191.617,98.115440625L190.015,98.115440625L191.144,92.791910625Q191.216,92.427280625,191.253,92.126470625Q191.289,91.825650625,191.289,91.552190625Q191.289,90.713550625,190.934,90.294230625Q190.579,89.874920625,189.888,89.874920625Q189.323,89.874920625,188.677,90.203080625Q188.031,90.531240625,187.458,91.087290625Q186.885,91.64334062500001,186.539,92.372590625L185.319,98.115440625L183.718,98.115440625L186.539,84.806640625Z"
                fill="#000000"
                fill-opacity="1" />
        </g>
        <g>
            <path
                d="M63.87692716943359,116.1557875L65.74938616943359,116.1557875L66.9005961694336,110.7990575Q66.74802616943359,110.9638775,66.45675616943359,111.1493075Q66.16548616943359,111.3347275,65.81179616943359,111.4995575Q65.4581161694336,111.6643775,65.11829616943359,111.7673875Q64.77847616943359,111.8704075,64.51494916943359,111.8704075L64.76460616943359,110.7166475Q65.05588616943359,110.7166475,65.4442461694336,110.5449575Q65.83260616943359,110.3732675,66.2070961694336,110.1397675Q66.58158616943359,109.9062705,66.85898616943359,109.7002425Q67.13638616943359,109.4942135,67.1918661694336,109.4118035L68.4401761694336,109.4118035L66.99768616943359,116.1557875L68.6759661694336,116.1557875L68.4401761694336,117.2546075L63.641136169433594,117.2546075L63.87692716943359,116.1557875ZM69.32785616943359,117.2546075Q69.45268616943359,116.7051975,69.6399361694336,116.2175975Q69.8271761694336,115.7299975,70.15312616943359,115.2973375Q70.4790761694336,114.8646875,70.98532616943359,114.4594975Q71.49158616943359,114.0543075,72.24056616943359,113.6697175Q72.7260261694336,113.4224875,73.21840616943359,113.1889875Q73.71083616943359,112.9554875,74.1199361694336,112.7082575Q74.5291361694336,112.4610175,74.7718361694336,112.1519775Q75.0145361694336,111.8429375,75.0145361694336,111.4308775Q75.0145361694336,111.1561775,74.8758361694336,110.9089375Q74.7371361694336,110.6617075,74.4459361694336,110.5037475Q74.15463616943359,110.3457975,73.71083616943359,110.3457975Q73.32243616943359,110.3457975,72.9826161694336,110.4556775Q72.6428061694336,110.5655575,72.3584661694336,110.7441175Q72.0741261694336,110.9226775,71.8522061694336,111.1149675Q71.63028616943359,111.3072575,71.4638461694336,111.4583475L70.86743616943359,110.5792975Q71.00613616943359,110.4556775,71.3112761694336,110.2427875Q71.61641616943359,110.0298875,72.04638616943359,109.8101245Q72.47635616943359,109.5903595,73.01729616943359,109.4324055Q73.5582261694336,109.2744505,74.1685361694336,109.2744505Q74.88973616943359,109.2744505,75.3821361694336,109.5216845Q75.8745361694336,109.7689185,76.13113616943359,110.1809775Q76.3877361694336,110.5930275,76.3877361694336,111.1149675Q76.3877361694336,111.7330575,76.1103361694336,112.2000475Q75.8329361694336,112.6670475,75.40983616943359,113.0035575Q74.98683616943359,113.3400775,74.5291361694336,113.5873075Q74.0714361694336,113.8345375,73.71083616943359,113.9993675Q73.3917861694336,114.1504475,72.9964861694336,114.3633475Q72.60119616943359,114.5762475,72.2197661694336,114.8440775Q71.83833616943359,115.1119175,71.5262661694336,115.4415575Q71.21418616943359,115.7712075,71.06161616943359,116.1557875L75.47233616943359,116.1557875L75.23653616943359,117.2546075L69.32785616943359,117.2546075ZM76.7483361694336,117.2546075L77.0812361694336,115.7162675L78.10763616943359,115.7162675L77.7747361694336,117.2546075L76.7483361694336,117.2546075ZM79.7997361694336,116.1557875L81.67223616943359,116.1557875L82.82343616943359,110.7990575Q82.67083616943358,110.9638775,82.37953616943359,111.1493075Q82.08833616943359,111.3347275,81.7346361694336,111.4995575Q81.3809361694336,111.6643775,81.0411361694336,111.7673875Q80.70133616943359,111.8704075,80.43773616943359,111.8704075L80.6874361694336,110.7166475Q80.97873616943359,110.7166475,81.36703616943359,110.5449575Q81.7554361694336,110.3732675,82.12993616943359,110.1397675Q82.50443616943359,109.9062705,82.78183616943359,109.7002425Q83.05923616943359,109.4942135,83.1147361694336,109.4118035L84.3630361694336,109.4118035L82.92053616943359,116.1557875L84.5988361694336,116.1557875L84.3630361694336,117.2546075L79.56393616943359,117.2546075L79.7997361694336,116.1557875ZM85.25063616943359,117.2546075Q85.37553616943359,116.7051975,85.56273616943359,116.2175975Q85.7500361694336,115.7299975,86.07593616943359,115.2973375Q86.4019361694336,114.8646875,86.90813616943359,114.4594975Q87.4144361694336,114.0543075,88.1634361694336,113.6697175Q88.6488361694336,113.4224875,89.1412361694336,113.1889875Q89.6336361694336,112.9554875,90.0427361694336,112.7082575Q90.4519361694336,112.4610175,90.6946361694336,112.1519775Q90.9374361694336,111.8429375,90.9374361694336,111.4308775Q90.9374361694336,111.1561775,90.7987361694336,110.9089375Q90.6600361694336,110.6617075,90.36873616943359,110.5037475Q90.0774361694336,110.3457975,89.6336361694336,110.3457975Q89.2452361694336,110.3457975,88.90543616943359,110.4556775Q88.56563616943359,110.5655575,88.28133616943359,110.7441175Q87.9969361694336,110.9226775,87.77503616943359,111.1149675Q87.5531361694336,111.3072575,87.38663616943359,111.4583475L86.7902361694336,110.5792975Q86.9289361694336,110.4556775,87.2341361694336,110.2427875Q87.5392361694336,110.0298875,87.9692361694336,109.8101245Q88.39913616943359,109.5903595,88.9401361694336,109.4324055Q89.4810361694336,109.2744505,90.09133616943359,109.2744505Q90.8125361694336,109.2744505,91.30493616943359,109.5216845Q91.79733616943359,109.7689185,92.0539361694336,110.1809775Q92.31053616943359,110.5930275,92.31053616943359,111.1149675Q92.31053616943359,111.7330575,92.03313616943359,112.2000475Q91.75573616943359,112.6670475,91.33273616943359,113.0035575Q90.9096361694336,113.3400775,90.4519361694336,113.5873075Q89.99423616943359,113.8345375,89.6336361694336,113.9993675Q89.3146361694336,114.1504475,88.91933616943359,114.3633475Q88.5240361694336,114.5762475,88.14263616943359,114.8440775Q87.7611361694336,115.1119175,87.4490361694336,115.4415575Q87.1370361694336,115.7712075,86.9844361694336,116.1557875L91.3951361694336,116.1557875L91.1593361694336,117.2546075L85.25063616943359,117.2546075ZM92.6711361694336,117.2546075L93.00403616943359,115.7162675L94.03043616943359,115.7162675L93.69753616943359,117.2546075L92.6711361694336,117.2546075ZM95.15393616943359,117.2546075Q95.27873616943359,116.7051975,95.46593616943359,116.2175975Q95.6532361694336,115.7299975,95.97913616943359,115.2973375Q96.3051361694336,114.8646875,96.81133616943359,114.4594975Q97.3176361694336,114.0543075,98.0666361694336,113.6697175Q98.55203616943359,113.4224875,99.0444361694336,113.1889875Q99.5368361694336,112.9554875,99.9460361694336,112.7082575Q100.35513616943359,112.4610175,100.5979361694336,112.1519775Q100.8406361694336,111.8429375,100.8406361694336,111.4308775Q100.8406361694336,111.1561775,100.7019361694336,110.9089375Q100.5632361694336,110.6617075,100.27193616943359,110.5037475Q99.9806361694336,110.3457975,99.5368361694336,110.3457975Q99.1484361694336,110.3457975,98.80863616943358,110.4556775Q98.46883616943359,110.5655575,98.18453616943358,110.7441175Q97.9001361694336,110.9226775,97.6782361694336,111.1149675Q97.4563361694336,111.3072575,97.28993616943359,111.4583475L96.6934361694336,110.5792975Q96.8321361694336,110.4556775,97.1373361694336,110.2427875Q97.44243616943359,110.0298875,97.8724361694336,109.8101245Q98.30243616943359,109.5903595,98.8433361694336,109.4324055Q99.38423616943359,109.2744505,99.99453616943359,109.2744505Q100.7158361694336,109.2744505,101.2081361694336,109.5216845Q101.70053616943359,109.7689185,101.9571361694336,110.1809775Q102.21373616943359,110.5930275,102.21373616943359,111.1149675Q102.21373616943359,111.7330575,101.93633616943359,112.2000475Q101.65893616943359,112.6670475,101.23593616943359,113.0035575Q100.8128361694336,113.3400775,100.35513616943359,113.5873075Q99.8974361694336,113.8345375,99.5368361694336,113.9993675Q99.2178361694336,114.1504475,98.82253616943359,114.3633475Q98.4272361694336,114.5762475,98.04583616943358,114.8440775Q97.6643361694336,115.1119175,97.35233616943358,115.4415575Q97.0402361694336,115.7712075,96.88763616943359,116.1557875L101.2983361694336,116.1557875L101.0625361694336,117.2546075L95.15393616943359,117.2546075ZM105.7783361694336,117.39196749999999Q104.9812361694336,117.39196749999999,104.4015361694336,116.9818375Q103.8218361694336,116.5717175,103.5101361694336,115.8486775Q103.1985361694336,115.1256475,103.1985361694336,114.2053875Q103.1985361694336,113.1340475,103.5522361694336,112.2000475Q103.9059361694336,111.2660575,104.5231361694336,110.5586975Q105.1403361694336,109.8513295,105.92703616943359,109.4530085Q106.7139361694336,109.0546875,107.5643361694336,109.0546875Q108.3582361694336,109.0546875,108.93383616943359,109.4667445Q109.5094361694336,109.8788005,109.82843616943359,110.6013975Q110.1474361694336,111.3239975,110.1474361694336,112.2549875Q110.1474361694336,113.3214075,109.7868361694336,114.2579775Q109.4262361694336,115.1943275,108.8180361694336,115.8931075Q108.2101361694336,116.5916675,107.4254361694336,116.9919275Q106.64093616943359,117.39196749999999,105.7783361694336,117.39196749999999ZM106.01413616943358,116.2656775Q106.5873361694336,116.2656775,107.10513616943359,115.9703675Q107.62303616943359,115.6750575,108.02533616943359,115.1393875Q108.4275361694336,114.6037175,108.66333616943359,113.9045075Q108.8991361694336,113.2052975,108.8991361694336,112.3923475Q108.8991361694336,111.4072675,108.48563616943359,110.7941275Q108.07213616943359,110.1809775,107.33183616943359,110.1809775Q106.74713616943359,110.1809775,106.21893616943359,110.4822875Q105.6908361694336,110.7833875,105.29073616943359,111.3201375Q104.89063616943359,111.8566675,104.6618361694336,112.5558775Q104.43293616943359,113.2550875,104.43293616943359,114.0680375Q104.43293616943359,115.0518275,104.84993616943359,115.6587475Q105.2671361694336,116.2656775,106.01413616943358,116.2656775ZM110.52193616943359,117.2546075Q110.6467361694336,116.7051975,110.8340361694336,116.2175975Q111.02123616943359,115.7299975,111.34723616943359,115.2973375Q111.67313616943359,114.8646875,112.17943616943359,114.4594975Q112.6856361694336,114.0543075,113.43463616943359,113.6697175Q113.92013616943359,113.4224875,114.41243616943359,113.1889875Q114.9048361694336,112.9554875,115.31403616943359,112.7082575Q115.72323616943359,112.4610175,115.9659361694336,112.1519775Q116.20863616943359,111.8429375,116.20863616943359,111.4308775Q116.20863616943359,111.1561775,116.06993616943359,110.9089375Q115.93123616943359,110.6617075,115.6399361694336,110.5037475Q115.3487361694336,110.3457975,114.9048361694336,110.3457975Q114.51653616943359,110.3457975,114.17663616943359,110.4556775Q113.8368361694336,110.5655575,113.5525361694336,110.7441175Q113.26823616943359,110.9226775,113.0462361694336,111.1149675Q112.8243361694336,111.3072575,112.6579361694336,111.4583475L112.0615361694336,110.5792975Q112.2002361694336,110.4556775,112.50533616943359,110.2427875Q112.81043616943359,110.0298875,113.2404361694336,109.8101245Q113.6704361694336,109.5903595,114.2113361694336,109.4324055Q114.75233616943359,109.2744505,115.3625361694336,109.2744505Q116.0838361694336,109.2744505,116.5762361694336,109.5216845Q117.0686361694336,109.7689185,117.32513616943359,110.1809775Q117.5817361694336,110.5930275,117.5817361694336,111.1149675Q117.5817361694336,111.7330575,117.3043361694336,112.2000475Q117.0269361694336,112.6670475,116.6039361694336,113.0035575Q116.1809361694336,113.3400775,115.72323616943359,113.5873075Q115.2654361694336,113.8345375,114.9048361694336,113.9993675Q114.58583616943359,114.1504475,114.19053616943359,114.3633475Q113.7952361694336,114.5762475,113.4138361694336,114.8440775Q113.0324361694336,115.1119175,112.7203361694336,115.4415575Q112.4082361694336,115.7712075,112.25563616943359,116.1557875L116.66633616943359,116.1557875L116.4305361694336,117.2546075L110.52193616943359,117.2546075ZM121.74283616943359,116.6777275L117.5540361694336,116.6777275L117.78983616943358,115.6063875L123.69843616943359,109.4118035L124.53063616943359,109.4118035L123.19913616943359,115.5789175L124.3642361694336,115.5789175L124.1284361694336,116.6777275L122.9633361694336,116.6777275L122.4640361694336,118.9989775L121.2434361694336,118.9989775L121.74283616943359,116.6777275ZM122.10343616943359,115.5789175L123.03273616943359,111.2797875L119.05203616943359,115.5789175L122.10343616943359,115.5789175Z"
                fill="#000000"
                fill-opacity="1" />
        </g>
    </g>
</svg>