<?xml version="1.0" encoding="UTF-8"?>
<svg id="_图层_2" data-name="图层 2" xmlns="http://www.w3.org/2000/svg" viewBox="0 0 940.11 892.46">
  <g id="_图层_1-2" data-name="图层 1">
    <g>
      <path d="m381.89,892.46c-.8-.45-1.67-.69-2.59-.68-6.76.08-12.75-2.62-18.75-5.21-10.29-4.42-18.5-11.42-25.01-20.47-4.54-6.3-7.75-13.24-10.17-20.62-3.01-9.22-3.59-18.66-2.8-28.16.37-4.55,1.95-8.96,3.65-13.27,6.61-16.71,14.25-32.99,21.52-49.43,5.6-12.67,11.26-25.32,16.94-37.94,2.8-6.24,6.24-12.1,10.7-17.32.16-.19.32-.4.47-.61,2.24-3.04,2.24-3.54-.11-5.84-2.22-2.17-3.22-2.28-5.98-.11-9.41,7.38-19.45,13.85-29.39,20.43-11.56,7.64-23.31,15.02-35.14,22.24-3.68,2.25-7.22,4.87-11.45,6.26-5.63,1.85-12.48-1.67-14.72-7.17-1.62-4-.79-7.48.77-11.05,6.98-15.99,13.96-31.99,21.04-47.93,1.82-4.1,3.81-8.12,5.42-12.32,1.95-5.11,5.97-8.32,10.55-10.81,5.77-3.14,11.07-7.01,16.81-10.18,1.3-.72,1.56-1.42.74-2.75-4.65-7.56-8.57-15.52-12.85-23.29-1.4-2.54-2.07-2.54-3.55-.02-5.5,9.28-10.92,18.59-16.44,27.86-4.99,8.4-9.88,16.82-15.07,25.07-4.25,6.74-12.61,9.33-20.01,6.5-9.17-3.51-17.58-8.48-25.57-14.11-4.29-3.02-8.56-6.08-12.69-9.36-4.05-3.22-7.77-6.76-11.45-10.33-5.08-4.92-10.15-9.88-14.81-15.17-7.46-8.48-14.57-17.24-21.25-26.38-3.78-5.18-7.54-10.37-11.11-15.71-13.29-19.88-24.88-40.69-35.27-62.24-4.79-9.96-9.22-20.04-13.59-30.17-.66-1.53-1.19-3.12-1.85-4.65-1.54-3.63-2.25-3.83-5.16-1.42-7.24,6-13.96,12.53-20.78,18.98-11.89,11.23-19.99,25.01-28.1,38.91-2.99,5.15-7.14,8.86-13.49,9.83-7.35,1.13-15.44-3.96-17.82-11.07-1.69-5.03-.93-9.52,1.09-14.09,7.3-16.55,14.62-33.1,21.91-49.67,5.37-12.22,10.55-24.53,16.1-36.67,4.23-9.23,9.14-18.17,15.62-26.04,3.76-4.57,5-8.99,3.27-14.86-2.14-7.21-3.51-14.65-4.89-22.07-1.05-5.65-1.83-11.34-2.94-16.95-1.5-7.56-2.19-15.23-3.43-22.82-.43-2.65-.53-5.37-.8-8.06-.06-.63-.14-1.29-.98-1.9-2.19,1.5-4.55,2.96-6.72,4.65-6.47,5.07-12.96,10.08-19.2,15.44-4.7,4.02-9.04,8.38-13.4,12.72-3.17,3.15-5.79,6.87-8.73,10.26-2.03,2.35-4.39,4.28-7.24,5.66-4.73,2.28-9.2,1.46-13.74-.61-7.4-3.39-11.73-13.82-8.09-21.62,4.5-9.65,8.59-19.49,12.92-29.21,5.28-11.85,10.65-23.64,15.91-35.5,3.84-8.67,7.29-17.5,11.64-25.94,1.91-3.72,4.73-6.76,7.43-9.8,7.25-8.17,14.97-15.94,23.32-23,8.03-6.8,16.28-13.35,24.87-19.43,2.07-1.46,3.31-3.38,4.33-5.69,5.63-12.96,11.4-25.85,17.13-38.76,1.29-2.91,2.46-5.85,4.39-8.49,4-5.47,9.23-8.25,15.99-8.51,5.36-.19,10.49.14,14.99,3.62,4.29,3.33,7.62,7.22,8.69,12.71.08.37.16.76.31,1.11.95,2.36,1.64,2.61,4,1.4,4.83-2.43,9.62-4.92,14.49-7.25,17.35-8.32,34.89-16.24,52.85-23.18,11.74-4.52,23.56-8.75,35.5-12.66,7.67-2.51,15.42-4.83,23.26-6.69,5.58-1.32,11.21-2.57,16.78-3.94,6.35-1.56,12.8-2.41,19.17-3.84,4.37-.98,8.88-1.51,13.35-1.83,13.77-.98,24.74,11.97,23.9,23.71-.35,5-2.48,9.38-5.03,13.61-4.44,7.37-8.83,14.77-13.24,22.15-4.02,6.72-8.04,13.43-12.05,20.15-3.73,6.29-7.45,12.58-11.19,18.87-3.88,6.5-7.62,13.08-11.68,19.46-2.77,4.36-7.04,6.72-12.18,7.14-6,.5-11.87,1.59-17.76,2.78-6.9,1.4-13.75,2.88-20.56,4.73-9.39,2.56-18.79,5.11-28.08,8.12-9.14,2.96-18.17,6.26-27.26,9.36-6.18,2.12-12.11,4.95-18.11,7.54-6,2.59-11.98,5.21-17.93,7.93-2.99,1.37-3.17,1.5-2.67,4.68.87,5.58,1.96,11.11,3.12,16.65,1.27,6,2.56,12,4.13,17.93,1.79,6.67,3.91,13.27,5.84,19.91.51,1.8,1.53,2.24,3.18,1.54.84-.34,1.7-.63,2.49-1.05,3.91-2.11,8.32-2.88,12.55-3.3,2.94-.29,6.32.5,9.26,1.82,4.28,1.93,7.98,4.58,10.57,9.15,2.04-2.77,3.1-5.61,4.18-8.35,4-10.21,8.56-20.17,15.31-28.84,5.57-7.14,12.22-13.37,21.42-15.63,10.37-2.56,19.9-1.16,27.74,6.9,2.94,3.02,2.9,2.61,6.93,1.24,5.92-1.99,9.02-6.14,11.11-11.73,2.22-5.89,4.73-11.68,7.54-17.29,3.27-6.51,8.32-10.63,16.13-10.39,6.42.21,12.45,4.55,14.65,10.68,1.19,3.33,2.19,6.59.35,10.04-.32.61-.4,1.62.61,1.91.76.21,1.03-.53,1.38-1.06,1.62-2.43,1.72-5.37,2.44-8.03,3.57-13.12,7.62-26.1,12.26-38.86,5.39-14.83,11.16-29.53,17.56-43.97,6.4-14.43,12.58-28.95,18.95-43.41,8.23-18.67,16.49-37.36,26.84-54.99,4.54-7.74,9.2-15.44,15.52-21.97,2.14-2.2,3.84-4.84,5.93-7.09,7.59-8.14,16.1-15.05,26.23-19.86,6.13-2.91,12.56-3.59,19.17-3.23,14.11.79,23.58,8.46,29.92,20.56,2.56,4.89,3.96,10.18,5.37,15.55,1.59,6.13,1.37,12.27,1.54,18.35.19,6.51.5,13.24-.74,19.61-.95,4.89-1.11,9.88-2.2,14.78-1.22,5.47-1.79,11.15-2.94,16.66-1.54,7.4-3.27,14.75-5.55,21.97-1.77,5.61-3.31,11.31-5.32,16.84-2.49,6.87-5.39,13.59-8.22,20.33-4.92,11.73-9.92,23.4-16.12,34.52-6.13,10.99-12.64,21.76-19.03,32.6-.64,1.09-1.59,2.03-1.17,3.73,4.65-1.32,9.22-3.01,14.15-2.54,6.06.56,11.92,1.61,16.89,5.55,3.09,2.44,3.39,2.53,5.97-.47,6.26-7.27,17.79-6.64,23.88.23,2.27,2.56,2.43,2.43,5.21.31,4.68-3.59,9.33-7.4,14.73-9.73,4.18-1.8,6.11-4.65,7.8-8.64,6.24-14.78,12.88-29.39,19.45-44.02,1.48-3.3,3.47-6.22,6.43-8.51,4.29-3.33,9.31-3.52,13.98-2.38,6.22,1.53,11.5,4.99,14.07,11.47.64,1.61.92,3.2.93,4.87,0,4.63.05,9.26-.02,13.9-.06,4.84-1.98,9.25-3.63,13.67-2.17,5.81-5.47,11.02-8.75,16.24-.66,1.05-1.21,2.17-1.83,3.3,1.21.43,1.59-.39,2.06-.92,4.95-5.61,10.89-10.15,16.37-15.18,8.23-7.56,16.29-15.34,24.64-22.76,5.28-4.68,10.92-9.02,17.9-11.02,5.03-1.43,10.1-1.3,15.17-.03,7.96,1.98,13.04,7.41,16.78,14.27,1.25,2.32,2.03,4.92,2.36,7.66,1.32,10.28-1.46,19.77-4.91,29.24-2.03,5.58-4.99,10.68-7.22,16.13-1.19,2.9-3.22,5.26-5.05,7.72-4.74,6.39-9.63,12.67-14.48,19-.24.31-.48.6-.71.92-.45.6-1.17,1.24-.56,2.01.55.69,1.43.4,2.17.23,1.87-.45,3.78-.82,5.6-1.45,7.38-2.61,15.26-1.96,22.81-3.55,5.15,1.17,10.86.42,15.1,4.65,6.24,6.22,7.61,14.86,3.63,23.02-1.21,2.46-2.98,4.47-4.57,6.64-6.71,9.25-13.61,18.35-20.62,27.36-5.11,6.58-9.97,13.37-14.96,20.06-4.94,6.64-10.7,12.42-17.55,17.15-7.38,5.1-14.41,10.73-21.89,15.7-10.17,6.76-19.91,14.07-30.01,20.93-7.96,5.4-15.59,11.32-23.34,17.03-.16.13-.18.45-.37.97,2.19,1.14,4.44,2.32,6.26,4.13,3.23,3.23,5.45,6.9,4.92,11.63-.68,6,1.14,11.73,1.79,17.56.32,2.98,1.9,5.81,3.06,9.1,2.06-2.36,2.78-4.97,3.84-7.35,4.73-10.53,9.31-21.13,13.96-31.72,4.84-11.03,9.84-22.02,14.51-33.13,3.76-8.99,13.29-14.72,23.9-12.51,7.58,1.58,12.98,6.27,15.54,14.01,1.56,4.73,1.77,9.23.26,13.94-.39,1.19-.26,2.54-.31,3.83-.14,3.83-.39,7.61-1.14,11.44-.92,4.6-.5,9.49-1.46,14.15-1.22,5.9-1.33,11.95-2.56,17.87-.76,3.62-.98,7.35-1.85,10.97-1.06,4.47-1.43,9.09-2.65,13.54-.8,2.94-1.05,6.02-1.69,9.02-1.62,7.51-3.14,15.05-5.02,22.52-.08.35-.06.72-.1,1.06.95.68,1.83.23,2.64-.05,6.42-2.25,12.8-4.58,19.22-6.82,8.12-2.83,16.24-5.65,24.38-8.4,9.1-3.07,18.24-6.08,27.36-9.07,10.71-3.52,21.42-7.03,32.15-10.45,2.12-.68,3.91-1.72,5.66-3.1,4.34-3.44,9.31-5.69,14.94-4.89,4.76.68,9.25,2.62,12.53,6.27,4.15,4.6,7.5,9.68,8.11,16.21.43,4.66-.23,8.93-2.62,12.93-4.15,6.95-8.3,13.9-12.42,20.86-6.59,11.16-13.16,22.34-19.77,33.5-4.46,7.51-8.91,15.01-13.43,22.49-2.28,3.76-5.87,5.74-10.05,6.55-14.67,2.83-28.57,8.22-42.75,12.64-14.2,4.42-28.15,9.59-42.33,14.09-11.11,3.52-21.97,7.83-32.94,11.84-3.38,1.22-6.66,2.67-10.07,3.78-1.61.53-2.65,1.38-3.39,2.85-7.41,14.52-16.13,28.32-24.35,42.38-5.89,10.08-11.87,20.12-17.85,30.16-6.72,11.24-13.29,22.57-20.33,33.6-5.52,8.64-11.23,17.23-17.8,25.11-5.92,7.09-11.52,14.46-17.79,21.3-3.3,3.59-6.19,7.5-9.68,10.95-9.44,9.34-19.73,17.55-30.69,25.06-10.65,7.3-21.81,13.56-33.71,18.48-8.88,3.68-17.98,6.76-27.54,8.27-2.03.32-4.1.31-6.14.42-1.53.08-3.09-.1-4.5.72-3.86.05-7.72.05-11.58.05Zm119.7-353.09c-.56-7.08.97-14.72,2.7-22.4,1.95-8.6,5.18-16.61,9.52-24.22,1.54-2.7,3.78-4.86,6.13-6.88,1.32-1.14,2.61-.93,3.73.29.51.56.92,1.24,1.35,1.87,3.02,4.55,6.74,5.77,11.76,3.84,4.91-1.9,7.33-6.79,5.73-11.74-2.04-6.22-6.61-10.25-12.01-13.46-4.39-2.62-9.33-2.41-13.85-1.24-5.39,1.42-9.78,5.07-13.57,9.15-5.48,5.9-9.38,12.83-12.35,20.28-1.38,3.46-2.54,7.01-3.91,10.47-.63,1.59-1.38,1.69-2.54.55-.37-.35-.71-.76-.98-1.19-5.03-8.03-12.32-13.54-20.8-17.18-9.89-4.25-20.2-7.48-31.11-8.07-1.01-.05-2.11-.13-3.02-.5-1.96-.8-3.99-.9-6.06-.92-4.37-.06-8.75-.16-13.12-.21-1.93-.03-3.78-.4-5.68-.76-4.81-.93-9.75-.92-14.54-.02-2.03.39-4,.76-6.06.77-6.05.06-12.1.14-18.14.26-1.27.03-2.64.02-3.81.43-2.36.84-4.76.95-7.22,1-4.49.08-8.99-.29-13.37,1.27-1.16.42-2.54.19-3.83.26-1.29.06-2.69-.19-3.83.26-5.13,2.01-10.63,1.29-15.92,2.46-8.35,1.87-16.95,2.54-25.43,4.04-6.16,1.09-12.29,2.33-18.42,3.49-6.35,1.19-9.28,6.35-8.83,10.49.56,5.28,4.65,8.48,10.5,8.6,4.95.1,9.62-1.48,14.41-2.3,5.69-.97,11.4-1.74,17.03-3.09,3.31-.79,4.92.39,5.52,3.73.39,2.17,1.09,4.2,1.62,6.3,2.32,9.12,5.85,17.8,9.83,26.25,6.82,14.54,14.7,28.5,23.92,41.71,5.52,7.91,11.23,15.65,17.35,23.1,3.44,4.18,7.04,8.17,10.82,12.03,2.19,2.24,2.04,3.65-.39,5.34-4.74,3.3-9.46,6.66-14.31,9.78-11.98,7.7-23.87,15.57-36.22,22.71-2.44,1.42-4.89,2.85-7.19,4.49-3.65,2.61-4.63,6.27-3.78,10.57.71,3.52,2.83,5.81,6.24,6.59,3.06.71,6.13.55,8.94-1.19,4.49-2.75,9.02-5.42,13.49-8.19,7.11-4.39,14.28-8.67,21.23-13.29,8.44-5.61,17.02-11.02,25.14-17.11,3.23-2.43,5.07-2.48,8.25.05,3.23,2.54,6.58,4.94,10.15,6.96,2.25,1.27,4.71,2.54,7.27,2.12,7.74-1.27,9.75-7.67,8.33-12.67-1.03-3.65-3.94-5.26-6.71-7.06-1.19-.77-2.41-1.46-3.39-2.49-1.67-1.74-1.72-2.67.06-4.13,4.46-3.67,8.89-7.38,13.51-10.84,4.31-3.25,8.38-6.77,12.43-10.33,7.83-6.87,15.01-14.44,22.16-22,6.72-7.11,12.77-14.72,17.76-23.14.32-.55.6-1.14.95-1.67.53-.79,1.24-1.4,2.24-1.11.87.24,1.05,1.09,1.11,1.87.34,4.65,1.87,9.01,3.28,13.37,2.75,8.51,7.9,14.86,16.49,18.13,3.39,1.29,6.88,1.37,10.21.4,7.98-2.3,13.91-7.48,18.53-14.23,2.03-2.96,2.62-3.2,6-2.01,5.29,1.88,10.45,1.7,15.57-.8,11.16-5.45,16.61-15.22,20.12-26.46.42-1.35.47-3.04,2.07-3.41,1.88-.43,2.25,1.43,2.83,2.61,3.01,6.11,7.3,11.15,12.42,15.55,2.19,1.88,4.66,3.36,7.32,4.18,3.6,1.11,7.14.76,9.78-2.54.85-1.08,1.77-2.83,3.25-2.09,1.69.84.42,2.43.02,3.73-1.67,5.37-3.62,10.68-4.81,16.16-.71,3.28-2.46,4.95-5.24,5.97-10.25,3.73-20.38,7.69-30.41,11.95-8.51,3.62-17.18,6.84-25.56,10.71-8.97,4.15-18.09,7.95-27.1,11.98-11.48,5.15-22.92,10.42-34.13,16.12-9.26,4.71-18.45,9.6-27.54,14.64-7.08,3.91-14.12,7.91-20.89,12.32-7.74,5.03-15.5,10.08-22.63,15.99-4.44,3.68-9.3,6.87-13.3,11.1-1.67,1.77-3.52,3.38-5.29,5.07-6.8,6.47-13.29,13.19-18.13,21.34-4.84,8.15-8.4,16.81-9.31,26.25-.8,8.32-.08,16.58,2.01,24.8,2.7,10.62,8.09,19.67,15.17,27.73,7.83,8.94,18.01,14.41,29.39,17.42,3.02.8,6.1,1.82,9.38,1.9,10.42.29,20.67-.47,30.9-2.8,8.09-1.85,15.71-4.87,23.18-8.2,12.69-5.65,24.59-12.79,35.75-21.1,9.3-6.93,17.97-14.51,25.96-22.95,7.16-7.56,13.7-15.62,20.33-23.63,3.84-4.65,7.72-9.31,11.18-14.25,7.67-10.94,15.02-22.05,21.47-33.79,7.35-13.4,14.78-26.7,20.28-41.03,4.95-12.93,9.65-25.94,13.57-39.21.84-2.83,2.35-4.46,4.87-5.4,5.26-1.99,10.53-3.99,15.83-5.92,11.44-4.17,22.97-8.09,34.32-12.48,10.29-3.97,20.86-7.16,31.25-10.82,9.18-3.23,18.58-5.95,27.81-9.04,12.79-4.29,25.59-8.32,38.76-11.21,5.74-1.27,9.15-5.34,10.33-10.82.96-4.54-.85-8.57-4.34-11.74-1.62-1.46-3.27-2.91-4.83-4.44-1.64-1.62-3.62-2.36-5.85-2.62-4.97-.56-9.15.8-12.34,4.79-1.05,1.3-2.12,2.4-3.94,2.85-4.1,1.01-8.17,2.24-12.19,3.54-10,3.22-19.98,6.55-29.98,9.76-10.99,3.52-21.79,7.54-32.73,11.19-13.99,4.66-27.76,9.96-41.64,14.94-2.96,1.06-4,.4-3.38-2.61.95-4.65,2.14-9.26,3.23-13.88,1.32-5.58,2.57-11.19,4.02-16.76.87-3.36,1.08-6.85,1.91-10.18,1.46-5.74,2.41-11.58,3.36-17.39,1.32-8.09,2.67-16.2,3.51-24.38.85-8.4,2.8-16.7,2.86-25.2,0-.64.05-1.32.27-1.9,1.25-3.35.82-6.85,1.13-10.29.35-3.76-1.05-6.71-3.27-9.54-3.67-4.68-10.74-6.27-15.96-3.39-4.79,2.64-7.08,6.9-7.5,12.22-.23,2.69.34,5.55-.4,8.06-1.88,6.37-.21,13.16-2.56,19.41-.82,12.58-3.22,24.93-5.28,37.33-.6,3.54-1.35,7.06-2.16,10.52-.72,3.14-.88,6.34-1.67,9.41-1.37,5.34-2.65,10.68-3.72,16.08-.45,2.25-1.16,4.47-1.8,6.69-.18.61-.53,1.22-1.3,1.22s-1.08-.6-1.25-1.24c-.18-.61-.34-1.24-.43-1.88-.42-2.59-1.9-4.62-4.04-5.87-8.27-4.79-11.89-12.85-15.15-21.17-1.27-3.22-2.32-6.51-3.8-9.65-2.54-5.37-4.36-10.99-5.15-16.87-.66-4.95-1.09-9.94-1.11-14.97-.02-4.78-3.43-8.09-8.14-8.73-6.95-.95-11.56,4.28-11.55,9.88.02,4.49.23,9.01-1.25,13.38-.24.71-.16,1.53-.19,2.3-.18,6.03-.32,12.05-.88,18.08-.72,7.75-2.4,15.22-4.92,22.5-1.17,3.38-2.65,6.71-5.1,9.44-1.37,1.53-2.36,1.3-3.18-.5-.76-1.67-1.06-3.44-.98-5.28.16-3.63-.61-7.14-1.35-10.68-1.01-4.79-4.7-6.43-8.59-7.93-.53-.21-1.29-.03-1.87.18-7.13,2.53-9.51,6.4-8.6,13.46.37,2.98,0,5.6-1.08,8.25-.77,1.9-1.37,3.91-2.36,5.69-2.62,4.66-4.71,9.73-9.01,13.29-2.48,2.04-3.27,2.03-5.23-.63-.45-.61-.9-1.27-1.19-1.96-1.64-3.92-2.72-8.03-2.98-12.27-.31-2.91-.16-5.87-.16-9.67Zm-121.37-154.7h.08c0-8.75-.05-17.5.02-26.25.03-4.25,2.12-7.06,6.06-8.38,1.58-.53,3.23-.88,4.87-1.13,2.93-.43,3.7.39,3.35,3.39-.63,5.47-.34,10.97-1.51,16.45-.87,4.07-.03,8.48-.39,12.69-.68,8.06,2.06,15.18,5.57,22.12,2.33,4.62,6.14,7.96,10.78,10.1,9.62,4.42,19.54,3.84,29.37.84,7.99-2.44,15.5-6.1,22.87-10.05,3.7-1.99,7.35-4.2,11.64-4.83,2.28-.34,4.63-.47,6.82-1.09,9.57-2.73,18.45-6.96,26.65-12.66,4.46-3.1,4.63-2.96,6.19,2.4.06.24.11.51.21.74,1.59,3.76,4.42,6.1,8.48,6.37,3.68.26,6.71-1.16,8.72-4.54,1.51-2.51,2.24-5.08,2.22-8.01-.03-14.93-.03-29.85.14-44.78.06-5.13.4-10.34,1.99-15.25,2.48-7.56,6.92-14.03,12.22-19.86,4.29-4.71,9.75-7.91,15.1-11.19,3.27-2.01,5.53-4.49,5.76-8.49.42-7.69-8.35-12.77-13.67-9.49-5.9,3.63-11.84,7.16-17.16,11.61-2.48,2.07-4.6,4.49-6.77,6.85-.61.66-1.48,1.21-2.41.88-.98-.34-1.05-1.37-1.14-2.27-.05-.39-.08-.77-.05-1.16.29-3.84-1.93-6.3-4.76-8.27-5.57-3.84-13.77-.1-14.44,6.59-.31,3.07-.47,6.26.32,9.22,1.11,4.18,1.11,8.4,1.17,12.63.03,1.93-.08,3.88.16,5.79.98,8.04,1.32,16.12,1.33,24.22.02,4.62-.34,9.26.42,13.86.21,1.29-.23,2.28-1.27,3.01-2.93,1.99-5.11,4.62-6.92,7.66-.63,1.05-1.79,1.85-2.81,2.57-6.13,4.26-12.47,8.19-19.45,10.89-8.65,3.36-17.32,3.68-25.57-1.17-3.51-2.06-6.92-4.46-9.23-7.99-1.66-2.53-2.19-5.4-2.96-8.27-2.28-8.51-1.35-16.84,1.32-24.98,3.47-10.58,10.66-18.69,18.83-25.88,4.63-4.07,9.91-7.33,15.71-9.57,1.72-.66,3.62-1.14,5.03.42,1.24,1.38.87,3.18.16,4.74-1.35,3.04-2.65,6.13-4.26,9.04-4.94,8.86-12.11,15.94-19,23.21-3.72,3.92-8.11,7.14-11.73,11.16-2.72,3.02-3.12,6.56-1.56,10.05,1.62,3.62,4.66,5.61,8.83,5.81,3.28.16,5.69-1.42,7.88-3.44,4.25-3.92,8.48-7.88,12.58-11.97,8.48-8.48,16.28-17.5,21.86-28.23,2.93-5.61,5.28-11.44,5.69-17.85.53-8.3-3.31-16.26-11.18-20.41-5.9-3.1-12.19-2.99-18.42-1.59-7.27,1.64-13.48,5.65-19.45,9.92-7.67,5.52-14.17,12.26-19.73,19.85-6.06,8.25-10.55,17.15-12.19,27.47-1.7,10.71-1.66,21.17,1.67,31.59,2.41,7.58,6.35,13.94,12.83,18.63.63.45,1.27.88,1.82,1.42,1.85,1.79,1.69,3.17-.71,3.97-4.95,1.67-9.83,3.47-15.31,3.31-4.74-.14-7.35-1.74-9.33-7.04-1.69-4.5-2.17-9.28-1.29-14.06.88-4.7,1.17-9.43,1.14-14.2-.02-2.83.61-5.58.98-8.36.92-7,1.74-14.14-3.91-20.01-1.75-1.82-1.67-2.8.29-4.57,6.59-5.97,12.19-12.85,18.17-19.4,3.3-3.6,6.87-6.96,10-10.71,5.1-6.08,10-12.35,14.89-18.63,3.47-4.46,7.03-8.88,10.13-13.59,4.58-6.95,8.88-14.11,13.14-21.26,2.96-4.95,5.98-9.92,8.44-15.13,5.28-11.27,10.42-22.61,15.12-34.15,3.73-9.15,7-18.45,10.08-27.83,1.5-4.54,2.17-9.23,3.52-13.8,1.35-4.54,2.4-9.18,3.17-13.85.61-3.78,1.14-7.67,2.06-11.27,1.38-5.4.34-11.07,2.51-16.26-.51-8.59,1.69-17.08.42-25.77-.84-5.71-1.43-11.4-3.39-16.86-2.78-7.75-6.79-14.65-13.98-19.25-5.52-3.52-11.56-4.92-17.97-4.57-4.65.24-8.96,1.99-13.16,4-11.93,5.71-20.6,15.25-28.92,25.06-5.97,7.04-10.95,14.85-15.47,22.97-6.08,10.89-11.82,21.92-16.74,33.36-4.25,9.89-8.27,19.9-12.13,29.95-4.09,10.63-8.19,21.26-11.34,32.26-2.86,9.99-5.85,19.93-8.62,29.95-2.59,9.38-4.7,18.87-6.85,28.36-1.25,5.5-2.36,11.02-3.43,16.57-.84,4.37-1.7,8.77-2.3,13.17-.69,5.02-1.66,6.3-6.66,6.5-2.81.11-5.71-.31-8.44.51-4.1,1.24-8.46.72-12.53,2.06-.56.19-1.3.08-1.9-.08-1-.27-1.74-1.19-1.27-2.03,1.58-2.86.37-6.21,1.64-9.02,1.25-2.77.82-5.2-.53-7.7-2.17-4.04-5.85-5.92-10.57-5.29-3.97.55-6.77,3.17-7.77,7.48-.55,2.38-.87,4.81-1.37,7.19-.9,4.41-1.14,8.91-2.4,13.27-.55,1.9-1.45,3.18-3.33,3.89-2.4.9-4.79,1.88-7.11,2.98-4.29,2.03-8.54,4.18-12.8,6.26-2.57,1.25-3.1,1.16-4.99-.92-1.03-1.14-1.99-2.35-3.06-3.47-6.14-6.59-15.17-8.64-24.4-5.11-10.18,3.88-16.52,11.98-21.63,21.07-3.78,6.69-7.04,13.66-9.31,21.04-1.8,5.89-3.52,11.84-4.47,17.9-.87,5.55-2.28,11.08-1.85,16.81.05.63-.14,1.29-.32,1.9-1.77,5.68-1.54,11.64-.56,17.19.93,5.28,1,10.65,2.35,15.92,1.96,7.67,4.33,15.04,9.26,21.33,6.14,7.85,16.41,11.03,25.57,7.77,5.28-1.88,9.75-5.02,13.48-9.31,4.29-4.95,4.28-3.91,7.67.14,5.45,6.5,14.59,8.59,22.42,5.37,5.79-2.36,10.76-5.95,15.2-10.29,2.28-2.24,2.88-2.36,5.73-.98.58.27,1.14.58,1.72.87,4.44,2.11,8.96,1.99,13.4.21,6.39-2.59,11.31-7.03,15.26-12.59.74-1.05,1.38-2.17,2.59-2.81,1.03-.55,1.79-.31,2.06.82.23.87.14,1.8.35,2.67.71,3.06,2.38,5.71,5.31,6.64,7.69,2.46,15.57-1.5,15.3-10.21-.21-8.48-.02-16.97-.02-25.46Zm-238.43-224.79c-7.83-.5-14.15,5.31-15.02,13.01-.48,4.33-.95,8.67-1.32,13.03-.34,4.1-.48,8.22-.56,12.34-.08,4.15-1,7.85-5.18,9.96-1.82.92-3.44,2.24-5.18,3.35-5.42,3.46-10.42,7.51-15.7,11.13-5.63,3.86-10.9,8.17-16.18,12.43-12.03,9.7-22.94,20.6-32.62,32.7-3.33,4.17-4.21,9.04-2.62,13.8,1.8,5.42,6.03,9.02,11.82,9.92,5.36.84,9.75-1.32,13.24-5.47,3.8-4.52,7.46-9.23,11.69-13.33,11.9-11.55,24.67-22.08,38.41-31.43,2.28-1.56,2.93-1.21,3.31,1.53.58,4.09.06,8.32.97,12.27.88,3.83,1.13,7.59,1.25,11.42.03.76.06,1.58.34,2.27,1.69,4.49,1.21,9.34,2.51,13.93,1.05,3.67,1.19,7.59,2.11,11.31.95,3.88,1.72,7.77,2.54,11.66,1.37,6.51,2.59,13.11,4.5,19.46,1.42,4.65,2.44,9.39,3.91,14.04,2.16,6.85,3.7,13.91,6.13,20.65,2.19,6.06.4,7.06-3.12,9.6-6.98,5.03-13.88,10.25-20.02,16.24-8.99,8.78-18.05,17.53-26.02,27.34-6.59,8.11-12.24,16.78-17.39,25.8-1.58,2.77-3.14,5.61-3.89,8.78-1.33,5.73-.16,10.86,4.31,14.73,4.76,4.12,10.31,4.09,15.97,2.01,3.67-1.35,5.53-4.37,7.14-7.69,4.46-9.15,10.02-17.61,16.37-25.54,5.71-7.13,11.95-13.8,18.64-20.02,5.45-5.07,10.99-10.07,17.03-14.43,2.54-1.83,3.72-1.4,4.92,1.45.64,1.53,1.21,3.1,1.82,4.65,6.03,15.02,12.8,29.71,20.07,44.13,5.82,11.56,12.29,22.79,18.83,33.97,1.09,1.88,2.22,3.75,3.44,5.55,5.03,7.43,9.83,15.02,15.01,22.36,7.27,10.28,14.99,20.22,23.47,29.47,10.39,11.37,21.21,22.32,33.73,31.54,8.73,6.43,17.92,11.95,27.57,16.76,3.33,1.66,6.93,2.75,10.79,2.51,9.59-.61,15.54-9.54,12.59-18.67-1.62-5.02-5.26-7.66-9.78-9.65-6.22-2.75-12.27-5.82-17.87-9.75-4.86-3.39-9.34-7.22-13.94-10.92-10.92-8.75-20.15-19.11-28.95-29.84-8.72-10.63-16.65-21.83-24.17-33.37-6.32-9.7-12.13-19.65-17.77-29.71-11.82-21.07-21.55-43.15-30.21-65.7-1.03-2.7-.68-4.02,1.98-5.32,5.65-2.78,11.29-5.58,17.39-7.25,6.93-1.91,10.97-9.67,10.05-15.89-1.01-6.8-7.33-12.26-14.19-12.37-3.46-.06-6.55,1.22-9.63,2.35-4.46,1.64-8.73,3.75-13.09,5.61-2.91,1.25-3.96.84-4.84-2.12-2.03-6.76-3.91-13.54-5.92-20.28-1.5-5.03-2.33-10.21-3.86-15.25-1.33-4.39-2.25-8.91-3.22-13.41-.88-4.13-1.64-8.28-2.4-12.43-1.03-5.69-2.2-11.36-2.98-17.08-.8-5.95-2.33-11.84-1.85-17.93.05-.61-.13-1.3-.42-1.87-.92-1.8-.92-3.73-.95-5.66-.05-2.83,0-5.66-.1-8.49-.1-3.06.29-6.16-1.08-9.1-.63-1.35-.14-2.75.92-3.91.97-1.06,2.11-1.87,3.35-2.56,9.7-5.53,19.45-10.94,29.4-15.99,14.88-7.56,29.88-14.86,45.36-21.15,9.02-3.67,17.98-7.51,27.18-10.7,12.47-4.31,24.87-8.83,37.65-12.16,6.96-1.82,13.91-3.57,20.93-5.18,3.12-.72,6.27-1.17,9.39-1.85,5.11-1.09,10.17-2.64,15.46-2.54,2.94.05,5.66-.79,8.19-1.96,5.18-2.4,8.12-6.67,8.6-12.34.6-6.88-5.66-14.33-13.74-14.89-5.84-.4-11.48,1.21-17.19,1.93-8.36,1.06-16.6,2.98-24.82,4.95-1.88.45-3.63,1.21-5.53,1.58-9.33,1.85-18.32,4.91-27.41,7.59-8.72,2.57-17.16,6.05-25.73,9.1-7,2.49-13.83,5.4-20.7,8.23-14.48,5.95-28.71,12.45-42.69,19.51-8.03,4.05-16.16,7.88-23.93,12.45-2.35,1.38-3.36.79-3.47-1.83-.06-1.53-.19-3.23.37-4.57,1.38-3.22.93-6.1-.29-9.28-2.12-5.6-7.14-9.44-13.11-9.51Zm523.93,64.95c-5.45-.47-9.97,1.95-14.35,5.11-3.57,2.57-6.67,5.63-10.05,8.4-9.65,7.9-18.06,17.13-27.57,25.17-6.58,5.57-12.4,11.95-18.37,18.16-5.07,5.28-10.65,10.07-15.34,15.71-6.39,7.7-12.9,15.3-19.22,23.05-9.73,11.95-17.8,24.77-22.81,39.42-3.96,11.6,5.24,20.49,14.17,20.64,4.21.06,8.14-1.09,12.05-2.17,9.63-2.67,18.74-6.92,28.24-10.05,13.38-4.41,26.36-10,39.6-14.88,8.54-3.15,17.19-5.95,25.81-8.89.85-.29,1.93-.43,2.46.45.61,1.01-.37,1.7-1.03,2.2-2.91,2.12-5.79,4.29-8.85,6.18-9.31,5.73-17.77,12.64-26.92,18.59-4.94,3.22-9.52,6.96-14.25,10.52-6.56,4.94-13.16,9.83-19.65,14.86-5.07,3.94-9.91,8.17-15.01,12.06-6.22,4.74-12.38,9.57-18.03,15.01-1.48,1.42-3.15,2.64-4.76,3.91-6.58,5.15-12.95,10.57-18.58,16.76-1.38,1.53-2.86,3.01-3.73,4.89-3.27,7.09,1.8,14.36,8.33,14.14,3.6-.11,6.11-1.79,8.27-4.25,4.09-4.66,8.62-8.81,13.54-12.58,2.75-2.09,5.52-4.21,8.04-6.58,4.7-4.41,9.67-8.48,14.64-12.55,5.95-4.87,12.34-9.22,18.14-14.25,6.61-5.73,13.77-10.73,20.72-15.99,10.25-7.72,20.88-14.94,31.38-22.31,5.36-3.76,10.86-7.3,16.18-11.08,6.69-4.74,13.29-9.65,19.94-14.44,5.45-3.91,10.76-7.96,14.17-13.93,2.12-3.72,2.41-7.59.39-11.39-2.46-4.6-6.72-7-11.68-6.85-7.16.19-14.3,1.42-21.26,3.01-8.49,1.95-16.86,4.49-25.17,7.13-7.93,2.53-15.73,5.45-23.55,8.32-6.5,2.36-12.93,4.92-19.41,7.33-9.97,3.72-19.94,7.38-29.93,11.07-2.77,1.03-5.53,2.07-8.32,3.07-.87.31-1.8.43-2.51-.35s-.48-1.69-.06-2.53c.51-1.03,1.11-2.03,1.66-3.06,6.3-12.06,15.39-22.12,23.9-32.54,10.42-12.75,22.1-24.4,34.02-35.74,12.47-11.87,25.33-23.32,38.05-34.93,1.13-1.03,2.41-1.93,3.72-2.75,2.36-1.46,3.1-1.03,3.38,1.7.37,3.73-1.22,7.01-2.27,10.42-1.69,5.4-4.21,10.42-6.85,15.44-1.96,3.75-3.31,7.64-.66,11.98,3.8,6.21,13.14,6.64,16.65.27,4.26-7.75,8.22-15.68,10.49-24.32,1.7-6.48,2.83-12.9,2.07-19.72-.87-7.85-9.49-18.08-19.82-16.86Zm-240.49,246.36c8.07,1.79,15.65,2.32,23,4.33,11.64,3.17,22.6,7.56,31.94,15.39,2.57,2.16,2.65,2.03,4.39-.92,4.63-7.85,9.1-15.81,15.79-22.21,3.76-3.6,7.9-6.53,12.95-8.01,2.03-.6,3.54-1.69,4.78-3.57,4-6.06,6.76-12.95,12.19-18.09-1.05-.72-1.82-.4-2.51-.18-5.68,1.85-11.42,3.07-17.42,1.87-1.48-.29-2.41.39-3.15,1.62-2.03,3.43-4.25,6.74-6.16,10.21-2.49,4.55-6.32,6.64-11.36,6.48-5.16-.16-9.17-2.36-11.1-7.41-.63-1.62-1.53-2.12-2.86-1.08-2.67,2.06-5.74,3.41-8.65,4.97-8.4,4.49-16.94,8.7-26.78,8.85-1.05.02-1.99.23-2.94.77-3.86,2.28-7.75,4.49-12.11,6.98Zm179.79-243.03c-.26-2.35-.48-5.44-.98-8.46-.34-2.06-1.5-3.84-2.91-5.36-4.15-4.49-10.08-4.81-15.3-.93-4.15,3.09-4.97,8.27-2.01,13.4.87,1.51,1.37,3.01,1.27,4.74-.26,5-1.77,9.44-5.16,13.29-5.42,6.14-2.38,15.79,5.4,17.29,4.55.87,7.96-1.35,10.65-4.78,6.56-8.35,8.62-18.16,9.04-29.19Zm19.77,78.33c-14.11,11.5-26.49,24.66-40.95,36.16.88,0,1.29.11,1.62-.02,8.62-3.22,17.24-6.47,25.88-9.67,1.7-.63,3.44-1.21,4.52-2.75,5.02-7.11,8.04-15.01,8.93-23.72Zm-198.67,349.05c8.81-5.1,16.58-10.53,25.03-14.8,1.43-.72,1.51-1.43.64-2.69-2.49-3.57-5.18-7-7.08-10.97-.88-1.85-1.8-1.83-3.1-.11-4.12,5.4-8.32,10.73-13.11,15.57-1.25,1.27-2.35,2.77-2.38,4.7-.03,2.57,0,5.11,0,8.3Zm101.44-138.64c.19.23.37.45.56.69,1.87-.21,3.54-1.42,5.52-1.19,2.04.24,3.35-.84,4.17-2.7,1.85-4.21,3.92-8.33,5.63-12.61.87-2.19,2.33-4.23,2.36-7.53-6.37,8.17-12.3,15.76-18.24,23.34Zm-166.9-58.13c-2.53,4.25-4.76,7.91-6.92,11.61-.69,1.19-.31,2.2,1.14,1.93,3.41-.64,6.84-.72,10.28-.93,1.67-.1,2.12-.95,1.16-2.27-2.22-2.96-3.38-6.5-5.66-10.34Zm148.25,88.32c2.14-4.57,4.05-8.64,5.6-13.33-2.07,1.25-2.19,3.38-3.59,4.54-2.65,2.24-3.39,4.99-2.01,8.8Z"/>
      <path d="m600.37,0c.56.74,1.35,1.14,2.17,1.53,5.85,2.77,8.81,7.85,9.94,13.82,1.14,6.08,3.09,11.9,4.54,17.89,2.01,8.36,5.29,16.31,8.03,24.43,1.7,5.05,4.05,9.83,7.22,13.96,3.68,4.81,8.8,7.62,15.22,7.88,8.19.34,15.68-2.04,23.14-4.95,11.77-4.6,22.28-11.58,33.39-17.42,7.64-4,15.5-7.46,23.58-10.42,7.98-2.93,16-2.51,24.06.4,14.97,5.39,23.35,16.23,27.46,31.23,1.96,7.14,2.43,14.25.95,21.3-2.35,11.24-6.26,21.94-13.85,30.98,1.83-.82,3.09-2.36,4.31-3.81,7.33-8.59,16.28-14.96,26.83-18.85,3.52-1.3,7.35-2.17,11.23-2.27,2.32-.06,4.65-.19,6.95-.02,13.29,1.05,24.85,5.28,33.12,16.66,5.82,8.01,8.23,16.87,7.87,26.39-.19,4.92-1,9.92-1.75,14.86-.64,4.18-1.32,8.36-1.99,12.55-.14.88-.32,1.77-.53,2.64-1.58,6.34-2.75,12.75-4.13,19.11-1.8,8.19-1.72,16.41-1.11,24.54.66,8.81,3.84,16.87,12.56,21.1,3.59,1.74,7.7,1.69,11.58,2.53,5.69,1.24,11.52,1.13,17.29,1.01,10.92-.21,21.84.51,32.75-.87,6.11-.77,11.71.85,16.13,5.57,1.27,1.35,2.07,2.91,2.81,4.55v7.72c-1.24,2.88-3.41,5.13-5.32,7.54-3.2,4.02-6.63,7.85-9.94,11.79-4.71,5.6-9.41,11.19-14.11,16.81-2.48,2.96-4.95,5.9-7.4,8.89-1.77,2.16-4.15,3.44-6.53,4.7-6.96,3.65-14.31,6.4-22,7.88-4.12.79-8.19,1.96-12.51,2.03-3.81.05-7.61,1.08-11.42,1.66-12.34,1.88-24.62,1.33-36.9-.11-11.95-1.42-23.29-4.91-33.99-10.5-4.47-2.33-8.49-5.29-12.4-8.41-6.24-4.99-12.21-10.25-17.48-16.28-8.81-10.1-15.42-21.49-19.35-34.26-2.53-8.2-3.97-16.71-4.91-25.3-.51-4.71-1.56-9.39-1.17-14.15,1.16-14.19,3.75-27.73,12.05-40.02,9.41-13.93,18.45-28.11,27.65-42.2.1-.16.02-.45.02-.71-1.24.37-1.75,1.48-2.43,2.33-6.43,8.17-13.2,16.1-19.88,24.06-3.38,4.04-6.51,8.28-9.83,12.37-3.52,4.33-7.93,7.69-12.47,10.84-8.32,5.79-17.6,9.39-27.34,11.97-5.71,1.51-11.44,2.38-17.32,2.99-6,.61-11.97,1.33-18.01,1.29-6.32-.06-12.43-1.4-18.58-2.64-6.34-1.27-12.26-3.63-18.13-6.19-7.7-3.33-14.65-7.96-21.62-12.56-4.09-2.7-7.58-6.13-11.1-9.51-4.31-4.12-7.59-9.01-10.99-13.85-8.11-11.53-12.42-24.7-16.58-37.91-1.61-5.1-2.16-10.55-3.1-15.87-.93-5.18-2.09-10.36-2.56-15.59-.71-8.06-1.24-16.15.43-24.19.72-3.51.76-7.17,2.91-10.29,1.67-2.43,3.15-5,4.79-7.46,7.04-10.57,13.86-21.3,20.54-32.12,2.7-4.37,5.98-8.25,10.36-11.05,2.24,0,4.55,0,6.87,0Zm174.72,91.08c.14-10.1-3.04-18.87-9.06-26.89-8.12-10.86-19.08-14.25-31.91-12.67-9.07,1.11-16.98,5.68-25.03,9.62-11.98,5.85-23.06,13.37-35.48,18.51-8.59,3.57-17.18,5.66-26.49,5.42-9.38-.24-16.15-4.63-20.99-12.22-2.33-3.65-4.29-7.62-5.85-11.68-2.75-7.16-5.61-14.27-7.35-21.84-1.85-8.07-4.94-15.86-6.47-24.05-.43-2.35-1.75-4.25-3.27-6.05-3.84-4.55-9.97-3.72-12.55,1.67-1.03,2.16-.88,4.54-1.5,6.74-1.85,6.59-1.37,13.32-.68,19.93.88,8.41,2.51,16.74,3.84,25.11.48,3.04.72,6.19,1.7,9.07,2.81,8.23,5.34,16.61,9.07,24.48,3.97,8.36,8.78,16.23,14.91,23.27,6.85,7.87,15.07,13.91,24,19.12,9.47,5.53,19.3,10.04,30.21,12.13,2.86.55,5.82.82,8.64,1.62,5.71,1.64,11.47,1.27,17.19.43,3.06-.43,6.08-.97,9.18-.93,1.16.02,2.38.1,3.46-.23,5.65-1.66,11.5-2.24,17.16-3.97,9.46-2.9,18.35-6.88,25.98-13.08,13.72-11.15,20.19-26.09,21.26-43.52Zm121.29,161.45v.13h-7.33c-9.86-.02-19.7.21-29.29-2.99-6.02-2.01-10.79-5.37-13.83-10.92-4.86-8.85-6.06-18.48-5.44-28.39.13-2.17.72-4.29.87-6.48.45-7.08,2.16-13.96,3.51-20.89,1.42-7.27,3.73-14.35,4.05-21.83.03-.88.16-1.83.51-2.62.79-1.7.87-3.47.87-5.28.02-3.35-.1-6.69.1-10.04.23-3.88-.95-7.35-2.62-10.7-1.09-2.19-2.2-4.39-3.6-6.37-3.25-4.57-7.24-8.36-12.4-10.73-4.46-2.03-9.1-3.43-13.98-4.04-5.58-.71-11.1.13-16.45,1.29-4.86,1.05-9.31,3.54-13.48,6.4-6.4,4.39-12.38,9.23-16.94,15.59-7.27,10.15-10.44,21.63-10.76,33.99-.1,3.47-.06,6.95-.02,10.42.05,3.09-.19,6.24.37,9.23.95,5.05,1.9,10.08,2.91,15.13.77,3.89,1.56,7.8,2.85,11.55,2.67,7.82,7.11,14.8,11.45,21.76,1.46,2.35,3.14,4.68,5.1,6.76,6.1,6.47,12.53,12.53,19.45,18.13,10.55,8.51,22.76,13.12,35.74,16.28,4.17,1.01,8.35,1.21,12.53,1.75,12.35,1.58,24.62.47,36.93-.51.5-.03,1.03-.18,1.5-.39,2.06-.9,4.25-.92,6.45-.97,1.16-.02,2.36.06,3.44-.26,5.52-1.62,11.21-2.48,16.7-4.28,5.39-1.77,10.71-3.55,15.34-7,3.01-2.24,3.65-5.26,2.86-8.57-.79-3.28-3.51-4.37-6.51-5.23-2.88-.82-5.61.16-8.41.14-7.53-.11-14.99-.08-22.45-.08Z"/>
      <path d="m430.01,784.48c-5.71.51-11.27-.35-16.76-2.65-7.53-3.17-12.83-8.57-16.36-15.63-3.33-6.67-5.66-13.69-5.18-21.42.19-3.15.79-6.1,1.88-8.97,3.83-10.07,10.29-18.29,18.17-25.48,2.75-2.51,5.53-4.99,8.32-7.48,4.78-4.29,9.96-8.11,15.15-11.85,4.26-3.07,8.73-5.85,13.09-8.8,5.65-3.81,11.6-7.13,17.52-10.47,8.06-4.54,16.07-9.17,24.35-13.24,12.43-6.11,24.83-12.29,37.52-17.89,17.13-7.58,34.24-15.17,51.57-22.29,3.67-1.51,7.35-3.01,11-4.55.9-.39,1.75-.61,2.49.14.77.77.42,1.66.08,2.51-2.99,7.37-5.61,14.88-8.57,22.26-6.16,15.34-14.68,29.4-22.89,43.6-5.29,9.18-11.27,18.06-18.16,26.25-5.28,6.27-10,13.03-15.38,19.22-5.97,6.87-11.87,13.8-18.9,19.75-7.46,6.32-15.17,12.29-23.32,17.64-10.02,6.59-20.73,11.93-32.1,15.7-7.53,2.46-15.3,4.36-23.53,3.65Zm109.08-84.6c-1.06-.37-1.72.08-2.43.39-12.34,5.37-24.66,10.81-37.04,16.08-13.11,5.58-26.02,11.58-38.81,17.84-15.57,7.62-30.77,15.94-45.68,24.77-2.65,1.56-5.21,3.28-7.78,4.95-1.35.87-1.54,1.98-.5,3.23.74.88,1.46,1.79,2.27,2.62,5.24,5.37,12.24,6.59,19.16,7.91.45.08,1.03-.11,1.48-.32,1.69-.8,3.52-.85,5.29-.77,6.19.29,11.97-1.64,17.55-3.7,17.5-6.45,33.13-16.23,47.42-28.18,6.8-5.69,13.11-11.87,18.8-18.72,6.56-7.91,13.14-15.78,19.41-23.93.48-.58,1.16-1.08.87-2.17Z"/>
      <path d="m397.52,496.24c9.25,1.96,19.06.51,28.81,2.04,7.51,1.17,14.85,2.64,22.05,4.87,4.66,1.45,9.04,3.57,13.09,6.35,4.6,3.17,6.87,7.78,7.33,12.98.29,3.18-.8,6.61-1.79,9.76-2.67,8.6-7.88,15.81-13.38,22.77-9.75,12.35-21.12,23.13-32.99,33.42-7.66,6.66-15.71,12.8-23.71,19.03-2.35,1.83-3.15,1.85-5.31-.29-2.38-2.35-4.6-4.84-6.85-7.32-8.73-9.63-16.47-20.04-23.64-30.87-10.66-16.1-19.86-32.97-26.57-51.13-1.51-4.09-2.65-8.32-3.78-12.53-.64-2.43-.26-2.96,2.01-3.73,2.32-.79,4.63-1.5,7.14-1.43,3.22.08,6.42,0,9.52-1.14.82-.31,1.77-.27,2.67-.29,4.12-.08,8.2-.08,12.29-.82,5.73-1.03,11.53-.87,17.32-.79,5.15.13,10.25-.39,15.78-.9Zm29.96,76.82c-.1-.85-.79-1.03-1.3-1.38-5.53-3.68-11.79-5.53-18.14-7.13-7.25-1.8-14.67-2.38-22.07-3.25-6.53-.76-13.06-.82-19.62-.74-2.35.03-2.61.55-1.37,2.43,1.27,1.93,2.75,3.72,3.97,5.66,6.71,10.7,14.83,20.27,23.29,29.56,2.09,2.3,2.4,2.16,5.13.35,3.67-2.43,6.67-5.61,10.2-8.19,7.16-5.21,13.49-11.34,19.91-17.32Z"/>
      <path d="m503.03,93.98c-.31,10.15-.95,20.23-2.65,30.29-1.01,5.95-1.87,11.9-3.28,17.77-1.77,7.32-3.46,14.65-5.71,21.86-2.22,7.11-4.5,14.2-7.33,21.09-5.61,13.66-11.26,27.29-18.14,40.37-4,7.61-8.6,14.89-13.04,22.26-4.65,7.72-10.05,14.88-15.6,21.97-8.25,10.52-17.07,20.52-26.06,30.41-6.14,6.77-12.26,13.49-19.37,19.28-1.79,1.45-3.23,3.3-4.87,4.92-.63.63-1.3,1.29-2.07,1.7-1.22.64-2.48-.23-2.11-1.54.74-2.67.51-5.37.5-8.06-.03-5.18,1.42-10.13,1.91-15.23.82-8.41,2.19-16.81,3.83-25.11,1.17-5.89,2.14-11.82,3.84-17.61,1.45-4.89,2.35-9.94,3.43-14.94,1.82-8.41,4.15-16.68,6.48-24.96,2.41-8.51,5.21-16.87,7.69-25.35,2.33-8.01,5.58-15.7,8.38-23.53,3.81-10.63,8.49-20.91,12.74-31.36,2.75-6.77,6.29-13.2,9.68-19.69,5.48-10.47,11.03-20.93,18.63-30.06,6.66-8.01,13.69-15.71,23.24-20.49,7.98-3.99,13.24-.6,16.18,5.69,2.01,4.29,3.31,8.91,3.3,13.78-.02,2.17.26,4.36.42,6.53Zm-112.97,217c1.9-.23,2.54-1.46,3.43-2.33,10.71-10.55,20.78-21.7,30.4-33.26,3.44-4.15,6.67-8.48,10.08-12.63,6.4-7.77,11.81-16.16,16.86-24.8,2.43-4.17,5.36-8.12,6.42-13.08.97-4.49,2.59-8.83,3.75-13.27,1.19-4.57,2.35-9.17,3.2-13.8.88-4.79,1.58-9.63,2.2-14.46.6-4.58,1.8-9.09,1.91-13.7.16-6.69.11-13.38.06-20.06-.05-5.1-1.45-9.91-3.67-14.46-2.3-4.74-5.92-6.05-10.79-4.1-1.19.48-2.33,1.06-3.47,1.66-4.73,2.48-8.48,6.19-12.27,9.86-1.61,1.54-2.78,3.3-3.6,5.39-3.8,9.67-7.75,19.27-11.48,28.97-3.86,10.04-7.25,20.25-10.26,30.59-2.07,7.14-4.2,14.27-6.27,21.41-.74,2.57-1.69,5.15-2.01,7.78-.64,5.24-2.81,10.08-3.65,15.28-.84,5.18-2.75,10.2-3.38,15.38-.82,6.88-2.57,13.59-3.67,20.41-1.21,7.62-2.03,15.36-3.78,23.23Z"/>
      <path d="m292.35,399.72c.14-6.32,1.99-12.37,3.17-18.53,1-5.28,2.4-10.5,2.25-15.97-.14-5.6-2.94-9.41-7.61-9.99-6.26-.77-9.92,1.74-11.63,7.45-2.06,6.9-3.12,13.99-4.12,21.07-1.17,8.33-4.63,15.73-8.38,23.03-1.51,2.94-3.59,5.61-5.47,8.38-1.4,2.04-3.2,3.67-5.4,4.86-2.72,1.46-4.5,1.21-6.14-1.51-2.3-3.83-4-7.83-4.97-12.37-1.48-6.98-1.9-14.01-1.74-21.01.14-5.95.56-11.95,1.56-17.95.9-5.45,2.17-10.76,3.6-16.04,2.96-10.82,6.88-21.26,14.67-29.74,1.13-1.22,2.33-2.4,3.63-3.44,2.61-2.11,5.08-1.74,6.76,1.17,1.29,2.2,2.35,4.55,3.01,7.08.74,2.83,1.59,5.66,3.17,8.19,2.03,3.25,5.07,4.66,8.83,4.41,3.91-.27,7-2.01,8.17-5.93.93-3.09,2.9-4.95,5.61-6.47,2.8-1.56,5.61-3.09,8.43-4.62,2.12-1.14,3.99.37,3.22,2.33-2.28,5.77-.03,12.11-2.49,17.84-.39.88-.16,2.03-.18,3.06-.08,6.3.43,12.67-.39,18.88-.8,6.03-.95,11.85.08,17.84.58,3.38.23,6.93.26,10.41.05,4.5,1.54,8.78,2.27,13.17.45,2.65.34,4.13-2.07,4.29-4.29.27-6.87,3.25-9.92,5.44-4.39,3.12-6.21,2.4-6.95-3.07-.51-4.09-1.7-8.07-1.22-12.26Z"/>
      <path d="m364.1,314.6c-.06.64-.08,1.93-.32,3.2-.88,4.68-1.45,9.41-1.17,14.17.16,2.81-.95,4.52-3.62,5.6-5.05,2.06-9.28,5.44-13.32,9.04-1.9,1.69-3.04,3.78-3.18,6.37-.35,6.13,2.46,9.6,10.13,11.27,1.61.35,3.33.08,5,.19,2.59.16,3.35.76,3.39,3.18.1,3.86.06,7.72-.1,11.56-.11,2.35-.95,3.04-3.35,3.49-.5.1-1.01.13-1.53.14-3.72.1-6.14,2.09-8.06,5.11-2.8,4.44-5.44,9.01-8.81,13.08-.9,1.09-1.75,2.24-2.78,3.18-1.66,1.54-2.9,1.25-3.84-.85-1.59-3.57-2.01-7.45-2.41-11.26-.69-6.51-.66-13.08-1.13-19.61-.23-3.23.37-6.63.48-9.97.39-10.65.93-21.3,2.24-31.86.61-4.95.9-9.97,1.99-14.89.45-1.99,1.24-3.04,3.35-3.55,5.47-1.3,10.89-2.81,16.57-2.85,1.69-.02,3.3-.31,4.92-.8,4.42-1.35,5.53-.47,5.57,4.21-.02.42-.02.8-.02,1.83Z"/>
      <path d="m692.47,138.32c-2.35,0-4.02-.06-5.68.02-4.83.24-9.33-1.3-13.86-2.53-2.33-.63-4.73-.71-7.08-1.59-9.7-3.67-18.69-8.7-26.92-14.81-5.92-4.39-11.36-9.62-15.26-16.12-2.98-4.94-6.26-9.7-8.54-15.04-.45-1.06-.9-2.12-1.32-3.2-.18-.48-.26-1.06.18-1.45.64-.56,1.24-.08,1.69.32.95.85,1.83,1.79,2.72,2.7,5.81,6.06,12.61,10.45,20.86,12.38.63.14,1.24.4,1.87.43,9.94.63,19.75.16,29.3-3.07,13.32-4.52,25.48-11.39,37.6-18.35,8.46-4.86,17.19-9.23,26.52-12.21,6.84-2.19,15.6,1.16,19.8,6.9,3.25,4.46,5.31,9.26,6.34,14.68.6,3.17.1,6.16-.55,9.15-1.93,9.07-5.47,17.47-12.16,24-6.82,6.64-15.22,10.78-24.42,13.29-5.68,1.54-11.42,2.51-17.26,3.33-4.84.68-9.63,1.05-13.83,1.16Zm-1.43-5.57c4.18.42,8.32-.88,12.56-1.09,2.04-.1,4.09-.48,6.13-.72,3.94-.47,7.8-1.37,11.64-2.33,3.35-.85,4.13-2.62,2.54-5.66-.6-1.13-1.45-2.12-2.07-3.23-4.25-7.37-13.27-10.05-21.44-6.8-8.96,3.57-17.45,8.06-25.99,12.48-1.13.58-2.14,1.42-3.17,2.19-.48.35-1.25.63-1.09,1.4.19.9,1.01,1.11,1.79,1.17,1.8.16,3.54.64,5.31.93,4.52.74,9.01,2.07,13.8,1.67Z"/>
      <path d="m773.88,175.49c.68-9.44,1.17-18.4,5.32-26.68,2.94-5.85,7.01-10.68,12.24-14.6,4.33-3.25,8.78-6.37,14.07-7.74,4.76-1.24,9.67-1.35,14.43.14,1.7.53,3.46.76,5.15,1.51,6.87,3.12,11.58,11.68,10.63,20.96-.27,2.69-.5,5.37-.53,8.07-.05,4.13-1.37,8.06-2.01,12.1-1.43,8.97-3.73,17.77-5.31,26.75-1.43,8.22-1.09,16.37-1.32,24.58-.26,8.59,2.36,16.58,5.92,24.09,3.3,6.95,9.15,11.98,15.92,15.75,1.91,1.06,3.91,1.95,5.85,2.93.47.24.92.58.82,1.16-.1.55-.6.82-1.11.93-1.79.35-3.65.45-5.37.03-9.31-2.28-18.77-4.13-27.41-8.57-6.69-3.44-12.34-8.32-17.92-13.22-9.2-8.07-16.37-17.74-21.31-28.92-1.99-4.52-3.8-9.18-4.33-14.27-.24-2.38-.98-4.76-1.58-7.13-1.53-6.03-1.4-12.22-2.17-17.87Zm6.39,3.78c-.23,3.62.58,7.08,1.27,10.63,1.25,6.4,2.24,12.87,4.28,19.09,1.79,5.39,4.89,10.12,7.78,14.93.72,1.19,1.74,1,2.16-.42.6-1.96.93-3.99,1.37-5.98,1-4.74,2.67-9.38,2.43-14.33-.03-.76-.02-1.59.26-2.28,1.5-3.83,1.01-7.83,1.22-11.79.18-3.25-.84-6.06-2.48-8.73-3.44-5.58-8.81-7.98-15.01-8.75-2.62-.32-3.14.37-3.28,3.02-.06,1.53,0,3.07,0,4.62Z"/>
    </g>
  </g>
</svg>